<?xml version="1.0" encoding="UTF-8"?>
<svg version="1.1" xmlns="http://www.w3.org/2000/svg" width="408" height="612">
<path d="M0 0 C134.64 0 269.28 0 408 0 C408 201.96 408 403.92 408 612 C273.36 612 138.72 612 0 612 C0 410.04 0 208.08 0 0 Z " fill="#F6F6F6" transform="translate(0,0)"/>
<path d="M0 0 C0.22042969 0.88751953 0.22042969 0.88751953 0.4453125 1.79296875 C2.13839474 7.75767802 3.76466041 10.61242733 9 14 C12.21265916 15.32350658 12.21265916 15.32350658 15 16 C12.4931707 17.67121954 10.37611624 18.7388735 7.625 19.875 C0.86208948 22.89532897 -2.88075251 26.18614065 -6.046875 32.94921875 C-8.26474284 40.04821377 -8.4840729 48.66135008 -5.4375 55.5625 C-1.85086784 61.35145015 3.36541807 65.44405071 9.83984375 67.52734375 C17.86664025 69.28365908 24.83172573 67.94127536 32 64 C34.93973281 61.64581624 34.93973281 61.64581624 37 59 C37.556875 58.401875 38.11375 57.80375 38.6875 57.1875 C42.24594869 51.25675219 42.9889119 43.997099 41.34765625 37.36328125 C39.27436852 30.84087821 36.74362225 25.89999041 31 22 C27.0841836 20.07394763 23.10910453 18.46416368 19 17 C19 16.34 19 15.68 19 15 C20.216875 14.608125 21.43375 14.21625 22.6875 13.8125 C27.37966503 12.03014049 30.60878523 9.69828348 32.96875 5.12109375 C33.70321155 3.43795271 34.35889309 1.72086591 35 0 C44.79301629 2.44825407 53.21011909 10.5936319 58.75 18.8125 C63.24460476 26.64654945 64.49364919 34.57494432 64.375 43.5 C64.38660156 44.37269531 64.39820313 45.24539063 64.41015625 46.14453125 C64.36905917 55.39137529 61.66165827 63.44592579 57.5 71.625 C57.16105713 72.29523193 56.82211426 72.96546387 56.47290039 73.65600586 C52.3441729 81.57346967 47.3659771 88.87601844 42 96 C41.40574219 96.79792969 40.81148438 97.59585938 40.19921875 98.41796875 C35.39088153 104.01377559 28.9458892 105.28731499 22 107 C20.91203125 107.2990625 19.8240625 107.598125 18.703125 107.90625 C13.64164095 109.26605168 9.26955802 110.15521526 4 110 C4.0625 107.8125 4.0625 107.8125 5 105 C10.38909752 100.32753778 14.98164484 98.99679377 21.9375 97.9375 C33.43559667 96.12833247 33.43559667 96.12833247 42.35546875 89.15234375 C43.26232422 87.56099609 43.26232422 87.56099609 44.1875 85.9375 C44.51427734 85.36894287 44.84105469 84.80038574 45.17773438 84.21459961 C51.32305073 73.72951073 51.32305073 73.72951073 53 62 C50.80485127 61.0406843 50.80485127 61.0406843 48 61 C41.1611958 64.86541107 38.36291252 72.20452885 35 79 C34.37867188 78.51144531 33.75734375 78.02289063 33.1171875 77.51953125 C28.74432181 75.38789622 24.92229127 75.59970184 20.125 75.6875 C19.25230469 75.68427734 18.37960938 75.68105469 17.48046875 75.67773438 C9.10239904 75.74702668 2.99432987 77.16363884 -3.265625 82.9140625 C-6.02367331 86.23117465 -7.0932498 89.83461627 -8 94 C-8.66 94 -9.32 94 -10 94 C-11.65108472 91.71978448 -13.15269055 89.45583311 -14.625 87.0625 C-15.06650391 86.34900391 -15.50800781 85.63550781 -15.96289062 84.90039062 C-19.09470461 79.731771 -21.90829812 74.45842906 -24.5 69 C-24.98847412 67.97918335 -24.98847412 67.97918335 -25.48681641 66.93774414 C-30.97787315 54.9918525 -32.27648896 40.23695766 -28.9375 27.4375 C-24.18703705 14.87319146 -16.02308668 6.58696588 -4.1015625 0.84765625 C-2 0 -2 0 0 0 Z " fill="#287A6F" transform="translate(187,246)"/>
<path d="M0 0 C5.62278574 3.16981746 7.73704557 8.27150026 10.3125 13.9375 C10.93363488 18.9953126 9.45630332 22.26197661 6.75 26.5 C3.90897184 29.93528333 1.3029785 31.3840529 -3.125 32.3125 C-4.671875 32.4053125 -4.671875 32.4053125 -6.25 32.5 C-6.25 33.16 -6.25 33.82 -6.25 34.5 C-5.425 34.561875 -4.6 34.62375 -3.75 34.6875 C4.22693066 36.53928748 10.20653249 41.80499629 14.75 48.5 C18.6323726 56.49878894 18.46166291 63.78624416 15.71484375 72.140625 C12.85344475 79.13773024 7.37679219 82.52446361 0.75 85.5 C-6.64993241 87.79703206 -13.92077255 86.95440345 -20.921875 83.828125 C-26.05533463 80.89964132 -30.76988536 76.44970619 -32.80859375 70.76953125 C-34.50498143 62.04739637 -34.39050673 53.33250855 -29.7890625 45.58203125 C-24.87062823 38.92841331 -18.97039646 36.14077947 -11.25 33.5 C-12.11625 33.273125 -12.9825 33.04625 -13.875 32.8125 C-18.31276729 31.08670161 -21.83559572 28.79960968 -24.3984375 24.6328125 C-26.22123014 20.06746947 -26.01721491 14.89288111 -24.52734375 10.24609375 C-22.49051159 5.90030205 -19.94219165 2.62416217 -16.25 -0.5 C-10.77421337 -2.32526221 -5.34259653 -2.30127023 0 0 Z " fill="#F4F6F6" transform="translate(212.25,228.5)"/>
<path d="M0 0 C0.37233816 4.65422701 0.46507989 8.05195253 -1.625 12.3125 C-4.18427816 15.20852529 -6.64086421 17.10135803 -10 19 C-10.66 19 -11.32 19 -12 19 C-11.649375 19.680625 -11.29875 20.36125 -10.9375 21.0625 C-9.73535825 24.82921081 -10.02853527 27.18353141 -11 31 C-12.4375 33.4375 -12.4375 33.4375 -15 35 C-16.46037403 34.96856338 -17.91978804 34.87664406 -19.375 34.75 C-25.12801876 34.49804297 -28.55309014 36.77112794 -33.35107422 39.72680664 C-51.47769858 50.68983138 -75.47833076 55.14200688 -96.375 55.25 C-97.365 55.270625 -98.355 55.29125 -99.375 55.3125 C-106.77973514 55.35157512 -113.34125035 54.4986583 -119.5625 50.25 C-121.72815806 46.86027434 -121.66041421 44.96248524 -121 41 C-117.67669761 34.40532182 -111.58441581 29.20528492 -105 26 C-102.6953125 26.31640625 -102.6953125 26.31640625 -101 27 C-101 27.99 -101 28.98 -101 30 C-103.265625 31.61328125 -103.265625 31.61328125 -106.25 33.3125 C-110.83611429 36.11381208 -113.80414183 38.05931911 -116 43 C-116.34733023 45.28027357 -116.34733023 45.28027357 -115 47 C-108.61819042 49.58689142 -102.53799943 49.34357151 -95.75 49.3125 C-94.49815918 49.30758545 -93.24631836 49.3026709 -91.95654297 49.29760742 C-78.18205502 49.12469477 -61.19567341 48.31377438 -49 41 C-47.84991354 38.20230325 -47.84991354 38.20230325 -47 35 C-45.46759258 32.67382758 -43.9260769 30.46479384 -42.25 28.25 C-39.05644488 23.99532752 -36.42056254 19.9498051 -34.125 15.125 C-32.78125 12.734375 -32.78125 12.734375 -31 11 C-26.87650623 10.17105022 -23.1437726 10.39653797 -19 11 C-19 11.66 -19 12.32 -19 13 C-18.34 13 -17.68 13 -17 13 C-16.67 12.01 -16.34 11.02 -16 10 C-15.34 10 -14.68 10 -14 10 C-13.79375 9.278125 -13.5875 8.55625 -13.375 7.8125 C-10.50294557 1.93784321 -6.52067586 -0.77627094 0 0 Z " fill="#F3F5EF" transform="translate(274,308)"/>
<path d="M0 0 C0.60972656 0.34546875 1.21945313 0.6909375 1.84765625 1.046875 C-1.56070506 13.18916215 -6.91802026 25.18830656 -17.80859375 32.09765625 C-22.07002023 33.82353398 -26.70826735 34.13664507 -31.24609375 34.7265625 C-36.71143131 35.53352509 -41.51976198 36.94033659 -46.15234375 40.046875 C-48.16354121 42.61087274 -48.16354121 42.61087274 -49.15234375 45.046875 C-53.44479904 43.51385525 -55.17156912 41.0791662 -57.15234375 37.046875 C-57.93861231 31.75528762 -57.82691259 27.47384754 -55.52734375 22.609375 C-50.92818574 17.64712557 -45.66925906 14.4167253 -38.82666016 13.85644531 C-36.18223694 13.77891986 -33.54774699 13.77400408 -30.90234375 13.796875 C-29.99226563 13.78914063 -29.0821875 13.78140625 -28.14453125 13.7734375 C-27.27570313 13.77601563 -26.406875 13.77859375 -25.51171875 13.78125 C-24.72249023 13.78350586 -23.93326172 13.78576172 -23.12011719 13.78808594 C-21.15234375 14.046875 -21.15234375 14.046875 -19.15234375 16.046875 C-19.21484375 18.546875 -19.21484375 18.546875 -20.15234375 21.046875 C-24.5280782 24.01108221 -30.07852113 23.22421249 -35.15234375 23.046875 C-35.15234375 23.706875 -35.15234375 24.366875 -35.15234375 25.046875 C-33.08806218 24.78997319 -31.02593281 24.51574454 -28.96484375 24.234375 C-27.81628906 24.08355469 -26.66773438 23.93273437 -25.484375 23.77734375 C-21.37552094 22.87657504 -18.46553333 21.62635025 -15.74609375 18.35546875 C-15.2046875 17.42927734 -15.2046875 17.42927734 -14.65234375 16.484375 C-14.03359375 15.44023437 -14.03359375 15.44023437 -13.40234375 14.375 C-12.05613838 11.86769251 -10.8581642 9.31181621 -9.65234375 6.734375 C-8.14064514 3.65885024 -7.20479955 2.09293375 -4.58984375 -0.203125 C-2.15234375 -0.953125 -2.15234375 -0.953125 0 0 Z " fill="#276D63" transform="translate(238.15234375,308.953125)"/>
<path d="M0 0 C3.84901497 2.2356554 5.9180314 4.17251208 7.6875 8.375 C8.40742111 14.26185492 8.52811856 19.45838969 6.125 24.9375 C1.65269906 29.40980094 -1.96310341 31.58018022 -8.25 31.9375 C-13.60859267 31.70061099 -17.34687365 29.95072065 -21.3125 26.375 C-24.70513388 21.92216803 -24.82271433 17.42692686 -24.66796875 11.99609375 C-23.93178167 6.56772528 -20.3155613 2.86153726 -16.3125 -0.625 C-10.76364437 -2.47461854 -5.3709676 -2.42397602 0 0 Z " fill="#E3C462" transform="translate(212.3125,228.625)"/>
<path d="M0 0 C1.32 0.33 2.64 0.66 4 1 C4 1.66 4 2.32 4 3 C3.34 3 2.68 3 2 3 C2 3.66 2 4.32 2 5 C2.556875 4.83757812 3.11375 4.67515625 3.6875 4.5078125 C6.19228372 3.95777553 8.437481 3.86718744 11 3.875 C12.2684375 3.87113281 12.2684375 3.87113281 13.5625 3.8671875 C15.84698944 3.99166289 17.80991574 4.36122543 20 5 C18.56293612 18.89745927 9.16992201 31.08213019 1 42 C0.40445313 42.80050781 -0.19109375 43.60101563 -0.8046875 44.42578125 C-5.61520975 50.01412427 -12.0574597 51.28814075 -19 53 C-20.08796875 53.2990625 -21.1759375 53.598125 -22.296875 53.90625 C-27.35835905 55.26605168 -31.73044198 56.15521526 -37 56 C-36.9375 53.8125 -36.9375 53.8125 -36 51 C-30.61090248 46.32753778 -26.01835516 44.99679377 -19.0625 43.9375 C-7.56440333 42.12833247 -7.56440333 42.12833247 1.35546875 35.15234375 C2.26232422 33.56099609 2.26232422 33.56099609 3.1875 31.9375 C3.51427734 31.36894287 3.84105469 30.80038574 4.17773438 30.21459961 C10.32305073 19.72951073 10.32305073 19.72951073 12 8 C9.80485127 7.0406843 9.80485127 7.0406843 7 7 C0.1611958 10.86541107 -2.63708748 18.20452885 -6 25 C-6.93392578 24.26523437 -6.93392578 24.26523437 -7.88671875 23.515625 C-12.24611523 21.39335921 -16.03312276 21.63746132 -20.8125 21.75 C-22.10897461 21.75773437 -22.10897461 21.75773437 -23.43164062 21.765625 C-28.69530929 21.82918628 -33.79061221 22.24975135 -39 23 C-38.505 21.515 -38.505 21.515 -38 20 C-36.68 20.33 -35.36 20.66 -34 21 C-34.33 19.68 -34.66 18.36 -35 17 C-34.34 17 -33.68 17 -33 17 C-33.33 16.01 -33.66 15.02 -34 14 C-32.54980469 14.06960938 -32.54980469 14.06960938 -31.0703125 14.140625 C-21.51776023 14.40544823 -13.68819506 13.97477407 -6.125 7.5625 C-3.01785972 3.8170751 -3.01785972 3.8170751 0 0 Z " fill="#2A7166" transform="translate(228,300)"/>
<path d="M0 0 C0.55945313 0.22558594 1.11890625 0.45117188 1.6953125 0.68359375 C1.6953125 1.67359375 1.6953125 2.66359375 1.6953125 3.68359375 C-0.5703125 5.296875 -0.5703125 5.296875 -3.5546875 6.99609375 C-8.14080179 9.79740583 -11.10882933 11.74291286 -13.3046875 16.68359375 C-13.65201773 18.96386732 -13.65201773 18.96386732 -12.3046875 20.68359375 C8.18774905 28.99028287 37.41746127 21.6482054 57.22607422 13.75292969 C62.13967275 11.62503157 66.84695855 9.09860686 71.49243164 6.44091797 C73.19879187 5.47093406 74.94402389 4.56989066 76.6953125 3.68359375 C77.6853125 4.17859375 77.6853125 4.17859375 78.6953125 4.68359375 C78.5703125 6.44140625 78.5703125 6.44140625 77.6953125 8.68359375 C58.48848837 23.14726924 29.76969114 28.81240833 6.3203125 28.93359375 C4.8353125 28.96453125 4.8353125 28.96453125 3.3203125 28.99609375 C-4.08442264 29.03516887 -10.64593785 28.18225205 -16.8671875 23.93359375 C-19.03284556 20.54386809 -18.96510171 18.64607899 -18.3046875 14.68359375 C-15.355643 8.83158356 -7.12090523 -0.9776158 0 0 Z " fill="#99AE5B" transform="translate(171.3046875,334.31640625)"/>
<path d="M0 0 C2.1875 0.875 2.1875 0.875 3.1875 1.875 C3.29577708 8.60778061 1.18054863 13.795331 -2.0625 19.5625 C-2.63677734 20.64241211 -2.63677734 20.64241211 -3.22265625 21.74414062 C-7.13218986 28.91597736 -10.78246252 34.13019713 -18.65625 37.01171875 C-23.28574209 38.27795359 -27.98979596 39.03831734 -32.74707031 39.66088867 C-37.62618038 40.37200261 -40.95445248 41.5945045 -44.8125 44.875 C-45.98344446 47.44274852 -45.98344446 47.44274852 -46.8125 49.875 C-42.60125285 48.95028443 -38.39412845 48.00798556 -34.1875 47.0625 C-32.99769531 46.80146484 -31.80789062 46.54042969 -30.58203125 46.27148438 C-29.42832031 46.01044922 -28.27460938 45.74941406 -27.0859375 45.48046875 C-26.02810059 45.24481201 -24.97026367 45.00915527 -23.88037109 44.76635742 C-19.39927143 43.46439221 -15.68273373 41.45515582 -11.8125 38.875 C-11.8125 40.525 -11.8125 42.175 -11.8125 43.875 C-23.79924934 48.34793154 -36.86781005 52.36106543 -49.8125 51.875 C-50.1425 50.555 -50.4725 49.235 -50.8125 47.875 C-50.1525 47.875 -49.4925 47.875 -48.8125 47.875 C-48.750625 47.2975 -48.68875 46.72 -48.625 46.125 C-47.41213958 42.76630961 -45.83436674 41.78679324 -42.8125 39.875 C-37.39571902 37.68609595 -31.96278709 36.72358585 -26.1875 36 C-19.42106096 35.00610472 -14.78850855 33.28778593 -10.2421875 28.07421875 C-6.86929327 23.38571918 -4.3762679 18.18933699 -1.875 13 C-1.3963147 12.01797607 -1.3963147 12.01797607 -0.90795898 11.01611328 C1.00709029 7.07907627 1.00709029 7.07907627 0.1875 2.875 C-2.71498405 3.34758628 -2.71498405 3.34758628 -5.8125 4.875 C-7.43539765 7.32842212 -8.66210827 9.48651737 -9.875 12.125 C-15.65657096 24.26033863 -15.65657096 24.26033863 -21.5 27.25 C-25.96443722 28.09234664 -30.28441442 28.03607814 -34.8125 27.875 C-34.8125 27.215 -34.8125 26.555 -34.8125 25.875 C-33.43964844 25.67583984 -33.43964844 25.67583984 -32.0390625 25.47265625 C-30.85054687 25.29605469 -29.66203125 25.11945313 -28.4375 24.9375 C-26.66246094 24.67646484 -26.66246094 24.67646484 -24.8515625 24.41015625 C-21.90547619 24.04037214 -21.90547619 24.04037214 -19.8125 22.875 C-20.1425 21.225 -20.4725 19.575 -20.8125 17.875 C-23.95800813 17.75707179 -27.10293541 17.68718617 -30.25 17.625 C-31.12849609 17.59148437 -32.00699219 17.55796875 -32.91210938 17.5234375 C-40.82414631 17.40665467 -46.81395278 19.25127118 -52.8125 24.5 C-55.45304353 27.63564544 -55.97488858 29.49888582 -56.375 33.5 C-56.45878906 34.31726563 -56.54257813 35.13453125 -56.62890625 35.9765625 C-56.68949219 36.60304688 -56.75007812 37.22953125 -56.8125 37.875 C-57.3075 36.39 -57.3075 36.39 -57.8125 34.875 C-58.4725 34.545 -59.1325 34.215 -59.8125 33.875 C-58.41662267 26.94374707 -55.63334841 23.13265951 -50.359375 18.50390625 C-44.21234974 14.57244991 -37.74192071 14.5364497 -30.6875 14.5625 C-29.80707031 14.54638672 -28.92664063 14.53027344 -28.01953125 14.51367188 C-23.10940597 14.50996891 -19.82907353 14.7167399 -15.8125 17.875 C-15.37679687 16.99457031 -14.94109375 16.11414063 -14.4921875 15.20703125 C-6.54540892 -0.29090706 -6.54540892 -0.29090706 0 0 Z " fill="#D4EEEC" transform="translate(237.8125,306.125)"/>
<path d="M0 0 C2.95943469 1.82021144 5.4202043 3.8404086 7 7 C7.34741553 12.29808682 7.53527987 15.75766415 4 20 C0.62908217 22.83463545 -1.35058069 23.92423441 -5.75 24.4375 C-6.8225 24.293125 -7.895 24.14875 -9 24 C-9.66 23.01 -10.32 22.02 -11 21 C-8.31168909 17.67914534 -4.87808588 16.57996092 -1 15 C0.20561184 14.01732141 0.20561184 14.01732141 0.09765625 12.15234375 C0.08605469 11.42144531 0.07445312 10.69054687 0.0625 9.9375 C0.041875 8.638125 0.02125 7.33875 0 6 C-0.66 5.67 -1.32 5.34 -2 5 C-2 7.64 -2 10.28 -2 13 C-3.98 13.33 -5.96 13.66 -8 14 C-7.6875 12.0625 -7.6875 12.0625 -7 10 C-6.01 9.67 -5.02 9.34 -4 9 C-4 8.34 -4 7.68 -4 7 C-6.52363988 7.62533375 -6.52363988 7.62533375 -9 9 C-9.84298574 11.38084878 -9.84298574 11.38084878 -10 14 C-10.32483418 15.33542939 -10.6550855 16.66961551 -11 18 C-12.32 18.33 -13.64 18.66 -15 19 C-17.46475637 15.30286545 -17.8167223 11.28985451 -17 7 C-15.29912722 3.90996818 -12.94756426 1.75151648 -10.1875 -0.4375 C-6.6560291 -1.34559252 -3.44097737 -1.04352097 0 0 Z " fill="#F9F3E2" transform="translate(209,232)"/>
<path d="M0 0 C0.60972656 0.34546875 1.21945313 0.6909375 1.84765625 1.046875 C-1.56317814 13.19797251 -6.92584531 25.21624057 -17.83984375 32.11328125 C-21.25328778 33.49134396 -24.77179145 33.78059639 -28.40234375 34.171875 C-29.14742187 34.25824219 -29.8925 34.34460938 -30.66015625 34.43359375 C-32.49012221 34.64474367 -34.32114254 34.84672045 -36.15234375 35.046875 C-35.82234375 34.056875 -35.49234375 33.066875 -35.15234375 32.046875 C-33.99605469 31.89992188 -33.99605469 31.89992188 -32.81640625 31.75 C-31.81351563 31.60046875 -30.810625 31.4509375 -29.77734375 31.296875 C-28.77960938 31.15765625 -27.781875 31.0184375 -26.75390625 30.875 C-24.00673328 30.30300611 -24.00673328 30.30300611 -22.80078125 27.96875 C-22.58679688 27.33453125 -22.3728125 26.7003125 -22.15234375 26.046875 C-23.80234375 26.376875 -25.45234375 26.706875 -27.15234375 27.046875 C-27.15234375 26.386875 -27.15234375 25.726875 -27.15234375 25.046875 C-26.57226562 24.86253906 -25.9921875 24.67820312 -25.39453125 24.48828125 C-16.40749805 21.1515115 -13.5216601 14.99807432 -9.58984375 6.671875 C-8.09772549 3.60155474 -7.1986469 2.08753143 -4.58984375 -0.203125 C-2.15234375 -0.953125 -2.15234375 -0.953125 0 0 Z M-29.15234375 27.046875 C-27.15234375 28.046875 -27.15234375 28.046875 -27.15234375 28.046875 Z " fill="#306F66" transform="translate(238.15234375,308.953125)"/>
<path d="M0 0 C0.99 0 1.98 0 3 0 C1.45989698 5.85990418 0.30579076 9.55840599 -5 13 C-5 13.33 -5 13.66 -5 14 C-3.68 14 -2.36 14 -1 14 C-2.38331742 19.22586581 -5.67866461 22.03858796 -10 25 C-13.4375 26.375 -13.4375 26.375 -16 27 C-17.49517388 21.23290077 -18.51445191 15.96764212 -18 10 C-15.58082006 6.55156895 -11.64738108 5.3915734 -7.875 3.875 C-3.63059164 2.41186881 -3.63059164 2.41186881 0 0 Z " fill="#E5BB43" transform="translate(270,259)"/>
<path d="M0 0 C1.03060547 0.41765625 1.03060547 0.41765625 2.08203125 0.84375 C4.13362215 1.65669633 6.19452588 2.44633781 8.26171875 3.21875 C9.39222656 3.6415625 10.52273437 4.064375 11.6875 4.5 C12.82574219 4.9228125 13.96398437 5.345625 15.13671875 5.78125 C18 7 18 7 20 9 C20.87911904 15.11504862 19.56027661 21.1071696 18 27 C12.15965227 25.68592176 7.91516558 22.42908947 4 18 C3.26953125 15.7734375 3.26953125 15.7734375 3 14 C4.98 14 6.96 14 9 14 C8.071875 13.443125 7.14375 12.88625 6.1875 12.3125 C2.99319042 9.99505972 1.56807196 8.57171946 0 5 C-0.1875 2.1875 -0.1875 2.1875 0 0 Z " fill="#DCB43D" transform="translate(136,259)"/>
<path d="M0 0 C0.55945313 0.22558594 1.11890625 0.45117188 1.6953125 0.68359375 C1.6953125 1.67359375 1.6953125 2.66359375 1.6953125 3.68359375 C-0.5703125 5.296875 -0.5703125 5.296875 -3.5546875 6.99609375 C-8.14080179 9.79740583 -11.10882933 11.74291286 -13.3046875 16.68359375 C-13.65201773 18.96386732 -13.65201773 18.96386732 -12.3046875 20.68359375 C-6.84173191 23.12942681 -1.30995075 23.11736568 4.5703125 23.30859375 C5.54484375 23.34726562 6.519375 23.3859375 7.5234375 23.42578125 C9.9138797 23.51952408 12.30432494 23.60523205 14.6953125 23.68359375 C14.6953125 24.01359375 14.6953125 24.34359375 14.6953125 24.68359375 C12.7153125 25.01359375 10.7353125 25.34359375 8.6953125 25.68359375 C13.9753125 26.01359375 19.2553125 26.34359375 24.6953125 26.68359375 C24.6953125 27.01359375 24.6953125 27.34359375 24.6953125 27.68359375 C18.56135688 28.74887456 12.53857364 28.90145803 6.3203125 28.93359375 C4.8353125 28.96453125 4.8353125 28.96453125 3.3203125 28.99609375 C-4.08442264 29.03516887 -10.64593785 28.18225205 -16.8671875 23.93359375 C-19.03284556 20.54386809 -18.96510171 18.64607899 -18.3046875 14.68359375 C-15.355643 8.83158356 -7.12090523 -0.9776158 0 0 Z " fill="#9BAF61" transform="translate(171.3046875,334.31640625)"/>
<path d="M0 0 C0.66 0 1.32 0 2 0 C2.12117188 0.96421875 2.24234375 1.9284375 2.3671875 2.921875 C2.53476563 4.18515625 2.70234375 5.4484375 2.875 6.75 C3.11863281 8.62945312 3.11863281 8.62945312 3.3671875 10.546875 C4.06395736 14.55449804 4.06395736 14.55449804 6 18 C8.16281282 19.1225649 8.16281282 19.1225649 10.625 19.75 C11.44226563 19.99234375 12.25953125 20.2346875 13.1015625 20.484375 C13.72804687 20.65453125 14.35453125 20.8246875 15 21 C15 21.66 15 22.32 15 23 C14.31292969 23.12375 13.62585938 23.2475 12.91796875 23.375 C7.53120129 24.43705893 7.53120129 24.43705893 3.66796875 27.98046875 C2.74199336 30.42008161 2.74199336 30.42008161 2 34 C1.01 33.67 0.02 33.34 -1 33 C-1.350625 31.88625 -1.70125 30.7725 -2.0625 29.625 C-3.10226058 26.84278349 -3.66985606 26.1543877 -6.4140625 24.87109375 C-8.93199524 24.13699223 -11.42722119 23.5068326 -14 23 C-14 22.34 -14 21.68 -14 21 C-13.38511719 20.84144531 -12.77023438 20.68289062 -12.13671875 20.51953125 C-11.32847656 20.28621094 -10.52023438 20.05289063 -9.6875 19.8125 C-8.88699219 19.59207031 -8.08648437 19.37164062 -7.26171875 19.14453125 C-4.20403928 17.59720813 -3.41354453 16.10290262 -2 13 C-1.21826605 9.66017019 -1.21826605 9.66017019 -0.8125 6.1875 C-0.65394531 5.02605469 -0.49539062 3.86460937 -0.33203125 2.66796875 C-0.22246094 1.78753906 -0.11289063 0.90710938 0 0 Z " fill="#F7C93A" transform="translate(203,191)"/>
<path d="M0 0 C-1.90272707 4.4396965 -4.28948963 7.29441447 -8.8125 9.16015625 C-10.3903125 9.60681641 -10.3903125 9.60681641 -12 10.0625 C-13.14597656 10.38863281 -14.29195312 10.71476562 -15.47265625 11.05078125 C-16.63667969 11.36402344 -17.80070312 11.67726563 -19 12 C-20.09183594 12.30292969 -21.18367187 12.60585938 -22.30859375 12.91796875 C-27.36670941 14.26301074 -31.73671791 15.1550304 -37 15 C-36.9375 12.8125 -36.9375 12.8125 -36 10 C-30.56283921 5.27614812 -25.76636707 3.89887882 -18.75 2.75 C-16.97373564 2.43353911 -15.19768376 2.11588256 -13.421875 1.796875 C-12.64424805 1.66635742 -11.86662109 1.53583984 -11.06542969 1.40136719 C-3.45851528 -0.0768559 -3.45851528 -0.0768559 0 0 Z " fill="#336B64" transform="translate(228,341)"/>
<path d="M0 0 C0.44283367 3.71980284 0.1733698 5.67993267 -1.625 9 C-5.2836593 13.03932905 -10.65531465 14.61204891 -15.625 16.5078125 C-18.93514484 17.97132561 -21.29910577 19.61625623 -24 22 C-25.25099244 19.42442732 -25.98143263 17.37134737 -26.125 14.5 C-23.64830416 8.99623147 -17.13549947 6.97073183 -11.8125 4.875 C-10.97332031 4.55789062 -10.13414062 4.24078125 -9.26953125 3.9140625 C-6.08871092 2.63297479 -3.43092018 0 0 0 Z " fill="#E3C052" transform="translate(273,247)"/>
<path d="M0 0 C0.99 0.33 1.98 0.66 3 1 C3.23808624 3.85703482 3.42918681 6.19955607 3 9 C0.10425444 12.14395232 -2.9888333 13.62474285 -7 15 C-7 15.99 -7 16.98 -7 18 C-1.30707666 18.45543387 1.6015015 17.68246386 6 14 C8.61000207 10.51999724 8.5787947 6.21205301 9 2 C9.33 2 9.66 2 10 2 C10.33 4.97 10.66 7.94 11 11 C11.66 11 12.32 11 13 11 C11.58069173 15.51598085 9.86472165 18.21740041 6 21 C-0.73164919 22.67564793 -6.43139734 22.59475795 -12.57421875 19.30078125 C-14.37118301 17.66135907 -14.62663758 16.36462867 -15 14 C-13.02 13.34 -11.04 12.68 -9 12 C-9.12375 10.3603125 -9.12375 10.3603125 -9.25 8.6875 C-9 5 -9 5 -7.1875 3.0625 C-5 2 -5 2 -2 2 C-2 2.66 -2 3.32 -2 4 C-2.99 4.66 -3.98 5.32 -5 6 C-5.33 6.99 -5.66 7.98 -6 9 C-4.02 8.67 -2.04 8.34 0 8 C0 5.36 0 2.72 0 0 Z " fill="#D0BB6B" transform="translate(207,237)"/>
<path d="M0 0 C4.35268473 1.72577149 8.68552917 3.49357641 13 5.3125 C13.69867188 5.59544922 14.39734375 5.87839844 15.1171875 6.16992188 C19.62378769 8.08735271 22.85114065 10.10552034 26 14 C25.9263784 17.75470151 25.67158839 19.32841161 23 22 C21.88625 20.9171875 21.88625 20.9171875 20.75 19.8125 C16.90231908 16.55393769 12.49334811 15.03254148 7.8046875 13.30859375 C4.77851232 11.89665965 3.07285587 10.60794192 1 8 C0.22870644 5.29058418 0.18916678 2.83750169 0 0 Z " fill="#DCC370" transform="translate(135,247)"/>
<path d="M0 0 C5.56663461 -0.28792938 9.2172507 -0.22557511 14 3 C15.8125 5.5625 15.8125 5.5625 17 8 C17.33 8.66 17.66 9.32 18 10 C18.04022391 12.3329866 18.04320247 14.66706666 18 17 C11.20397802 16.53130883 7.22040966 15.10936105 2.1875 10.25 C0.41844908 6.89811405 0.31386875 3.76642498 0 0 Z " fill="#8FAC34" transform="translate(134,333)"/>
<path d="M0 0 C0.37233816 4.65422701 0.46507989 8.05195253 -1.625 12.3125 C-4.21053144 15.23823295 -6.56797519 17.14098656 -10 19 C-11.32 19 -12.64 19 -14 19 C-14.86096102 8.2475535 -14.86096102 8.2475535 -11.6875 4.4375 C-7.54355921 0.67904208 -5.53715631 -0.24609584 0 0 Z " fill="#94B032" transform="translate(274,308)"/>
<path d="M0 0 C2.4375 1.5625 2.4375 1.5625 4 4 C4.0625 7.5625 4.0625 7.5625 3 11 C0.13741823 13.61721762 -1.31229362 14.02696888 -5.1875 13.875 C-8 13 -8 13 -10 10 C-10.46155369 6.38449608 -10.45406883 4.66363906 -8.375 1.625 C-5.28813568 -0.48706506 -3.6717087 -0.61195145 0 0 Z " fill="#C7B658" transform="translate(260,328)"/>
<path d="M0 0 C0.598125 0.185625 1.19625 0.37125 1.8125 0.5625 C4.16408762 1.22093687 4.16408762 1.22093687 7 0 C3.68548624 12.59515229 -4.39429958 23.60635794 -12 34 C-13.65 33.67 -15.3 33.34 -17 33 C-16.62198242 32.59185059 -16.24396484 32.18370117 -15.85449219 31.76318359 C-11.90958429 27.35700591 -8.97263768 22.86157143 -6.25 17.625 C-5.86457031 16.92117188 -5.47914063 16.21734375 -5.08203125 15.4921875 C-2.42471118 10.45339373 -0.96971688 5.60627844 0 0 Z " fill="#43766B" transform="translate(241,308)"/>
<path d="M0 0 C0.19335938 0.61488281 0.38671875 1.22976562 0.5859375 1.86328125 C0.97652344 3.07564453 0.97652344 3.07564453 1.375 4.3125 C1.63023437 5.11300781 1.88546875 5.91351563 2.1484375 6.73828125 C2.98831811 9.22724528 2.98831811 9.22724528 5 12 C3.02 12.33 1.04 12.66 -1 13 C-1 12.34 -1 11.68 -1 11 C-2.45833358 9.37485532 -2.45833358 9.37485532 -4 8 C-4.66 8.66 -5.32 9.32 -6 10 C-6.99 9.34 -7.98 8.68 -9 8 C-9.33 8.66 -9.66 9.32 -10 10 C-10.33 10.33 -10.66 10.66 -11 11 C-11.68268138 12.32520503 -12.3507041 13.65812182 -13 15 C-17.75 14.25 -17.75 14.25 -20 12 C-14.89454104 7.05141268 -7.57786499 0 0 0 Z M-19 15 C-17 16 -17 16 -17 16 Z " fill="#39877C" transform="translate(187,246)"/>
<path d="M0 0 C0 4.29 0 8.58 0 13 C-0.99 13.495 -0.99 13.495 -2 14 C-0.68 14.33 0.64 14.66 2 15 C2.33 14.01 2.66 13.02 3 12 C3.33 12.99 3.66 13.98 4 15 C-3.69256757 21.52195946 -3.69256757 21.52195946 -11 21 C-11.66 20.01 -12.32 19.02 -13 18 C-10.31168909 14.67914534 -6.87808588 13.57996092 -3 12 C-1.79438816 11.01732141 -1.79438816 11.01732141 -1.90234375 9.15234375 C-1.91394531 8.42144531 -1.92554688 7.69054687 -1.9375 6.9375 C-1.958125 5.638125 -1.97875 4.33875 -2 3 C-2.66 2.67 -3.32 2.34 -4 2 C-4 4.64 -4 7.28 -4 10 C-5.98 10.33 -7.96 10.66 -10 11 C-9.6875 9.0625 -9.6875 9.0625 -9 7 C-8.01 6.67 -7.02 6.34 -6 6 C-6 5.34 -6 4.68 -6 4 C-6.99 4.33 -7.98 4.66 -9 5 C-8 2 -8 2 -6.1875 0.8125 C-4 0 -4 0 0 0 Z " fill="#F8F5E9" transform="translate(211,235)"/>
<path d="M0 0 C-0.33 0.99 -0.66 1.98 -1 3 C-4.01953125 4.1328125 -4.01953125 4.1328125 -7.8125 5.125 C-9.05644531 5.45757812 -10.30039063 5.79015625 -11.58203125 6.1328125 C-12.70996094 6.41898437 -13.83789062 6.70515625 -15 7 C-15.62318115 7.18087158 -16.2463623 7.36174316 -16.88842773 7.5480957 C-19.37793274 8.08088259 -21.65744683 8.1124567 -24.203125 8.09765625 C-25.1828125 8.09443359 -26.1625 8.09121094 -27.171875 8.08789062 C-28.18765625 8.07951172 -29.2034375 8.07113281 -30.25 8.0625 C-31.796875 8.05573242 -31.796875 8.05573242 -33.375 8.04882812 C-35.91672573 8.03706088 -38.45833319 8.02062011 -41 8 C-41.33 7.34 -41.66 6.68 -42 6 C-40.99098633 5.85377197 -39.98197266 5.70754395 -38.94238281 5.55688477 C-35.19240727 5.012881 -31.44282709 4.46619317 -27.69335938 3.91870117 C-26.07172096 3.68229325 -24.44997679 3.44660954 -22.828125 3.21166992 C-20.49450836 2.8734957 -18.16128669 2.53270338 -15.828125 2.19140625 C-15.10506165 2.08719864 -14.38199829 1.98299103 -13.63702393 1.87562561 C-10.980868 1.48513586 -8.36310825 1.09315239 -5.76074219 0.42553711 C-4 0 -4 0 0 0 Z " fill="#8CA050" transform="translate(221,353)"/>
<path d="M0 0 C0 3 0 3 -1.6171875 5.015625 C-4.33069896 7.27540175 -6.84909145 8.44607571 -10.125 9.75 C-11.17945313 10.17796875 -12.23390625 10.6059375 -13.3203125 11.046875 C-16 12 -16 12 -18 12 C-18.11269443 18.1105424 -17.89604368 23.95170514 -17 30 C-17.33 30 -17.66 30 -18 30 C-18.33 32.64 -18.66 35.28 -19 38 C-19.33 38 -19.66 38 -20 38 C-20.03867188 36.69289063 -20.03867188 36.69289063 -20.078125 35.359375 C-20.55582478 25.32767965 -21.83156528 16.15367808 -28 8 C-27.875 5.875 -27.875 5.875 -27 4 C-26.01 3.34 -25.02 2.68 -24 2 C-23.34 5.3 -22.68 8.6 -22 12 C-19.77428233 12.21144575 -19.77428233 12.21144575 -17.7578125 10.16015625 C-14.86309423 7.89276361 -12.29931502 6.73770984 -8.875 5.4375 C-5.23424094 4.05292205 -2.53384299 3.01439942 0 0 Z " fill="#EFF6ED" transform="translate(271,255)"/>
<path d="M0 0 C1.98 0.66 3.96 1.32 6 2 C4.7934375 2.7734375 4.7934375 2.7734375 3.5625 3.5625 C0.29511432 6.67050101 0.39267175 8.60207646 0 13 C-0.875 15.375 -0.875 15.375 -2 17 C-2.99 17.33 -3.98 17.66 -5 18 C-4.175 18.433125 -3.35 18.86625 -2.5 19.3125 C-1.675 19.869375 -0.85 20.42625 0 21 C0 21.99 0 22.98 0 24 C0.99 24.33 1.98 24.66 3 25 C2.34 25.66 1.68 26.32 1 27 C0.05125 26.0925 -0.8975 25.185 -1.875 24.25 C-6.10900024 20.58111273 -10.74851768 18.79628168 -16 17 C-16 16.34 -16 15.68 -16 15 C-14.783125 14.608125 -13.56625 14.21625 -12.3125 13.8125 C-7.62033497 12.03014049 -4.39121477 9.69828348 -2.03125 5.12109375 C-1.29678845 3.43795271 -0.64110691 1.72086591 0 0 Z " fill="#3E8178" transform="translate(222,246)"/>
<path d="M0 0 C-0.80824219 0.23074219 -1.61648437 0.46148437 -2.44921875 0.69921875 C-10.83359722 3.18279218 -10.83359722 3.18279218 -17 9 C-17.33 9.99 -17.66 10.98 -18 12 C-13.78875285 11.07528443 -9.58162845 10.13298556 -5.375 9.1875 C-4.18519531 8.92646484 -2.99539062 8.66542969 -1.76953125 8.39648438 C-0.61582031 8.13544922 0.53789062 7.87441406 1.7265625 7.60546875 C2.78439941 7.36981201 3.84223633 7.13415527 4.93212891 6.89135742 C9.41322857 5.58939221 13.12976627 3.58015582 17 1 C17 2.65 17 4.3 17 6 C5.01325066 10.47293154 -8.05531005 14.48606543 -21 14 C-21.33 12.68 -21.66 11.36 -22 10 C-21.34 10 -20.68 10 -20 10 C-19.9071875 9.13375 -19.9071875 9.13375 -19.8125 8.25 C-18.59963958 4.89130961 -17.02186674 3.91179324 -14 2 C-4.8038148 -1.63085629 -4.8038148 -1.63085629 0 0 Z " fill="#D4EEED" transform="translate(209,344)"/>
<path d="M0 0 C1.03688965 0.05236816 2.0737793 0.10473633 3.14208984 0.15869141 C4.82431641 0.23603516 4.82431641 0.23603516 6.54052734 0.31494141 C7.71615234 0.37939453 8.89177734 0.44384766 10.10302734 0.51025391 C11.87806641 0.59533203 11.87806641 0.59533203 13.68896484 0.68212891 C16.61923847 0.82391634 19.54869507 0.97535724 22.47802734 1.13525391 C22.47802734 1.46525391 22.47802734 1.79525391 22.47802734 2.13525391 C20.49802734 2.46525391 18.51802734 2.79525391 16.47802734 3.13525391 C21.75802734 3.46525391 27.03802734 3.79525391 32.47802734 4.13525391 C32.47802734 4.46525391 32.47802734 4.79525391 32.47802734 5.13525391 C26.29973645 6.21992576 20.24191932 6.31874373 13.97802734 6.32275391 C12.46789062 6.34112305 12.46789062 6.34112305 10.92724609 6.35986328 C5.37197869 6.37078451 0.72291074 5.99895545 -4.52197266 4.13525391 C-4.52197266 0.81649064 -3.13037865 0.16788284 0 0 Z " fill="#9BAB69" transform="translate(163.52197265625,356.86474609375)"/>
<path d="M0 0 C4 2 8 4 12 6 C13.0828125 6.5259375 14.165625 7.051875 15.28125 7.59375 C17.72141197 8.85590274 19.23100914 9.93617733 21 12 C22.80411967 9.24075815 23.0127245 8.11027897 22.625 4.75 C22.41875 3.8425 22.2125 2.935 22 2 C22.66 2 23.32 2 24 2 C25.75 4.5625 25.75 4.5625 27 8 C25.3125 11.375 25.3125 11.375 24.125 13.171875 C20.06969848 19.76173997 20.43274901 28.52938559 20 36 C19.67 36 19.34 36 19 36 C19 33.69 19 31.38 19 29 C18.34 29 17.68 29 17 29 C17.165 27.865625 17.33 26.73125 17.5 25.5625 C18.07576084 21.02939706 18.09505266 16.56252762 18 12 C17.21496094 11.68546875 16.42992187 11.3709375 15.62109375 11.046875 C9.82986473 8.68774858 4.33171353 6.27173331 -1 3 C-0.67 2.01 -0.34 1.02 0 0 Z " fill="#EDF3E4" transform="translate(137,256)"/>
<path d="M0 0 C0.99 0.33 1.98 0.66 3 1 C3.23808624 3.85703482 3.42918681 6.19955607 3 9 C0.57106439 11.63713009 -1.42332485 12.77719369 -4.75 14.0625 C-5.4925 14.371875 -6.235 14.68125 -7 15 C-7.33 15.99 -7.66 16.98 -8 18 C-8.66 18 -9.32 18 -10 18 C-10 17.34 -10 16.68 -10 16 C-10.99 15.67 -11.98 15.34 -13 15 C-12.34 14.649375 -11.68 14.29875 -11 13.9375 C-10.34 13.298125 -9.68 12.65875 -9 12 C-9 10.845 -9 9.69 -9 8.5 C-9 5 -9 5 -7.1875 3.0625 C-5 2 -5 2 -2 2 C-2 2.66 -2 3.32 -2 4 C-2.99 4.66 -3.98 5.32 -5 6 C-5.33 6.99 -5.66 7.98 -6 9 C-4.02 8.67 -2.04 8.34 0 8 C0 5.36 0 2.72 0 0 Z " fill="#DBBD63" transform="translate(207,237)"/>
<path d="M0 0 C0.68578125 0.2784375 1.3715625 0.556875 2.078125 0.84375 C4.14139396 1.66023076 6.21558596 2.44936353 8.296875 3.21875 C9.43640625 3.6415625 10.5759375 4.064375 11.75 4.5 C12.89984375 4.9228125 14.0496875 5.345625 15.234375 5.78125 C18 7 18 7 19 9 C16.87429688 8.52396226 14.74945573 8.04407402 12.625 7.5625 C11.44164062 7.29566406 10.25828125 7.02882813 9.0390625 6.75390625 C6 6 6 6 4 5 C4.19188156 6.939509 4.19188156 6.939509 5 9 C6.83983424 10.34231442 6.83983424 10.34231442 9.0625 11.25 C9.79597656 11.58515625 10.52945313 11.9203125 11.28515625 12.265625 C12.13400391 12.62914062 12.13400391 12.62914062 13 13 C13 14.32 13 15.64 13 17 C10.69 16.67 8.38 16.34 6 16 C7.98 18.64 9.96 21.28 12 24 C7.42730974 21.71365487 6.0047845 20.00637934 3 16 C3 15.34 3 14.68 3 14 C4.98 14 6.96 14 9 14 C8.071875 13.443125 7.14375 12.88625 6.1875 12.3125 C2.99319042 9.99505972 1.56807196 8.57171946 0 5 C-0.1875 2.1875 -0.1875 2.1875 0 0 Z " fill="#D7C372" transform="translate(136,259)"/>
<path d="M0 0 C-0.33 1.32 -0.66 2.64 -1 4 C-1.66 4 -2.32 4 -3 4 C-3 5.98 -3 7.96 -3 10 C-1.68 10.33 -0.36 10.66 1 11 C0 14 0 14 -1.875 15.1875 C-4 16 -4 16 -7 16 C-7.33 13.36 -7.66 10.72 -8 8 C-8.66 8 -9.32 8 -10 8 C-9.67372714 4.98197607 -9.38918764 3.40308719 -7.25 1.1875 C-4.62847443 -0.19608294 -2.92325122 -0.24360427 0 0 Z " fill="#E7B839" transform="translate(262,267)"/>
<path d="M0 0 C0.556875 0.391875 1.11375 0.78375 1.6875 1.1875 C1.23667531 2.64817199 0.77656463 4.10598032 0.3125 5.5625 C0.05726563 6.37460937 -0.19796875 7.18671875 -0.4609375 8.0234375 C-1.3125 10.1875 -1.3125 10.1875 -3.3125 12.1875 C-3.6425 11.1975 -3.9725 10.2075 -4.3125 9.1875 C-5.9625 9.8475 -7.6125 10.5075 -9.3125 11.1875 C-9.3125 11.8475 -9.3125 12.5075 -9.3125 13.1875 C-9.9725 13.1875 -10.6325 13.1875 -11.3125 13.1875 C-11.3125 13.8475 -11.3125 14.5075 -11.3125 15.1875 C-11.9725 14.8575 -12.6325 14.5275 -13.3125 14.1875 C-12.43466349 12.24177991 -11.5344486 10.30614651 -10.625 8.375 C-10.12613281 7.29605469 -9.62726563 6.21710938 -9.11328125 5.10546875 C-6.84350354 1.42754261 -4.53088898 -1.59193397 0 0 Z " fill="#3C786F" transform="translate(238.3125,308.8125)"/>
<path d="M0 0 C3.0625 2.3125 3.0625 2.3125 5 5 C5 5.99 5 6.98 5 8 C0.17143834 8.38628493 -3.11485977 8.45837619 -7.5 6.1875 C-10 4 -10 4 -11 1 C-7.52416014 -0.73791993 -3.79170912 -0.59490609 0 0 Z " fill="#90A64C" transform="translate(234,356)"/>
<path d="M0 0 C0.66 0 1.32 0 2 0 C2.19916016 1.44632813 2.19916016 1.44632813 2.40234375 2.921875 C2.57894531 4.18515625 2.75554687 5.4484375 2.9375 6.75 C3.11152344 8.00296875 3.28554687 9.2559375 3.46484375 10.546875 C3.86049338 13.09982593 4.30446422 15.5186291 5 18 C4.01 17.34 3.02 16.68 2 16 C2 15.34 2 14.68 2 14 C1.236875 14.78375 0.47375 15.5675 -0.3125 16.375 C-5.04761905 21 -5.04761905 21 -9 21 C-9 21.66 -9 22.32 -9 23 C-7.35 23.33 -5.7 23.66 -4 24 C-7.93670488 25.31223496 -10.12488144 24.24296256 -14 23 C-14 22.34 -14 21.68 -14 21 C-13.38511719 20.84144531 -12.77023438 20.68289062 -12.13671875 20.51953125 C-11.32847656 20.28621094 -10.52023438 20.05289063 -9.6875 19.8125 C-8.88699219 19.59207031 -8.08648437 19.37164062 -7.26171875 19.14453125 C-4.20403928 17.59720813 -3.41354453 16.10290262 -2 13 C-1.21826605 9.66017019 -1.21826605 9.66017019 -0.8125 6.1875 C-0.65394531 5.02605469 -0.49539062 3.86460937 -0.33203125 2.66796875 C-0.22246094 1.78753906 -0.11289063 0.90710938 0 0 Z " fill="#E4CB66" transform="translate(203,191)"/>
<path d="M0 0 C0 0.66 0 1.32 0 2 C-9.41002278 5.62870159 -9.41002278 5.62870159 -14 4 C-14 4.99 -14 5.98 -14 7 C-11.36 7.33 -8.72 7.66 -6 8 C-9.11910856 9.79275866 -11.67682428 10.34290718 -15.25 10.625 C-16.14203125 10.69976562 -17.0340625 10.77453125 -17.953125 10.8515625 C-18.62859375 10.90054687 -19.3040625 10.94953125 -20 11 C-19.92131689 8.24609108 -19.55609965 6.54111044 -17.55078125 4.58984375 C-11.74122778 0.26733434 -7.20193063 -0.14121433 0 0 Z " fill="#3A6A63" transform="translate(211,345)"/>
<path d="M0 0 C-6 7.5 -6 7.5 -9 9 C-13.55420947 8.08915811 -15.2734848 5.55833339 -18 2 C-15.56421213 1.46969932 -13.12694025 0.95047688 -10.6875 0.4375 C-9.65206055 0.21030273 -9.65206055 0.21030273 -8.59570312 -0.02148438 C-5.24455934 -0.71761569 -3.30465928 -1.10155309 0 0 Z " fill="#265D55" transform="translate(214,361)"/>
<path d="M0 0 C6.40615131 2.51431409 12.7337314 5.15444808 19 8 C18.67 9.32 18.34 10.64 18 12 C14.37 11.34 10.74 10.68 7 10 C7 8.68 7 7.36 7 6 C4.03 5.505 4.03 5.505 1 5 C0.67 3.35 0.34 1.7 0 0 Z " fill="#ECBD3C" transform="translate(137,250)"/>
<path d="M0 0 C3.03499675 0.15432187 5.74471919 0.47409859 8.6875 1.1875 C8.03515625 3.61328125 8.03515625 3.61328125 6.6875 6.1875 C4.12109375 7.04296875 4.12109375 7.04296875 1.125 7.375 C-0.6949248 7.59036171 -2.51136412 7.84924495 -4.3125 8.1875 C-4.6425 8.8475 -4.9725 9.5075 -5.3125 10.1875 C-6.9625 10.1875 -8.6125 10.1875 -10.3125 10.1875 C-8.9925 9.8575 -7.6725 9.5275 -6.3125 9.1875 C-6.126875 7.516875 -6.126875 7.516875 -5.9375 5.8125 C-5.13897888 1.18107751 -4.74618568 0.26865202 0 0 Z " fill="#246A5F" transform="translate(207.3125,333.8125)"/>
<path d="M0 0 C5.11365014 1.0681847 10.07227969 2.23107476 15 4 C15 5.98 15 7.96 15 10 C12.6875 10.6875 12.6875 10.6875 10 11 C8.625 9.8125 8.625 9.8125 7 8 C4.71649938 6.56319062 2.36861935 5.29603701 0 4 C0 2.68 0 1.36 0 0 Z " fill="#EAB838" transform="translate(140,264)"/>
<path d="M0 0 C0.08167446 1.41569064 0.13949698 2.83276805 0.1875 4.25 C0.22230469 5.03890625 0.25710938 5.8278125 0.29296875 6.640625 C0 9 0 9 -3 13 C-2.34 9.37 -1.68 5.74 -1 2 C-2.98 2.33 -4.96 2.66 -7 3 C-7 3.66 -7 4.32 -7 5 C-7.66 5 -8.32 5 -9 5 C-9.309375 5.639375 -9.61875 6.27875 -9.9375 6.9375 C-11 9 -11 9 -12 10 C-12.04080783 11.99958364 -12.04254356 14.00045254 -12 16 C-8.535 15.505 -8.535 15.505 -5 15 C-6.97420135 17.52259061 -7.96745642 17.9929808 -11.1875 18.6875 C-12.115625 18.790625 -13.04375 18.89375 -14 19 C-14.86096102 8.2475535 -14.86096102 8.2475535 -11.6875 4.4375 C-7.54355921 0.67904208 -5.53715631 -0.24609584 0 0 Z " fill="#A2B45E" transform="translate(274,308)"/>
<path d="M0 0 C1.84765625 0.33984375 1.84765625 0.33984375 4.0625 0.9375 C5.16271484 1.22947266 5.16271484 1.22947266 6.28515625 1.52734375 C7.13400391 1.76130859 7.13400391 1.76130859 8 2 C7.59007812 2.47050781 7.18015625 2.94101562 6.7578125 3.42578125 C6.21898437 4.04839844 5.68015625 4.67101562 5.125 5.3125 C4.59132812 5.92738281 4.05765625 6.54226563 3.5078125 7.17578125 C0.08084501 11.32187922 -0.29055334 13.67318869 0 19 C0.33 19.66 0.66 20.32 1 21 C-0.32 20.34 -1.64 19.68 -3 19 C-2.98839844 18.10796875 -2.97679687 17.2159375 -2.96484375 16.296875 C-2.95582031 15.12640625 -2.94679687 13.9559375 -2.9375 12.75 C-2.92589844 11.58984375 -2.91429687 10.4296875 -2.90234375 9.234375 C-2.98217908 6.59022872 -3.21356222 4.50173909 -4 2 C-3.01 1.67 -2.02 1.34 -1 1 C-0.67 0.67 -0.34 0.34 0 0 Z " fill="#F0F5E5" transform="translate(154,337)"/>
<path d="M0 0 C1.48199902 0.44909061 2.96055236 0.90956564 4.4375 1.375 C5.26121094 1.63023437 6.08492187 1.88546875 6.93359375 2.1484375 C9 3 9 3 10 5 C8.91332031 5.34611328 8.91332031 5.34611328 7.8046875 5.69921875 C-1.54410555 8.85287827 -6.46643002 12.10722811 -11 21 C-11.12375 20.360625 -11.2475 19.72125 -11.375 19.0625 C-11.58125 18.381875 -11.7875 17.70125 -12 17 C-12.66 16.67 -13.32 16.34 -14 16 C-13.67 15.34 -13.34 14.68 -13 14 C-12.34 14.33 -11.68 14.66 -11 15 C-10.67 14.34 -10.34 13.68 -10 13 C-9.34 13 -8.68 13 -8 13 C-7.79375 12.236875 -7.5875 11.47375 -7.375 10.6875 C-5.57929296 7.17770897 -3.56863688 6.47400219 0 5 C0 3.35 0 1.7 0 0 Z " fill="#3E7D75" transform="translate(192,258)"/>
<path d="M0 0 C7.12874054 2.74182328 13.63589149 8.70928298 17.0625 15.5625 C17.5265625 16.7690625 17.5265625 16.7690625 18 18 C11.97902192 16.45974979 8.66793743 13.73541739 5.4375 8.4375 C4.963125 7.633125 4.48875 6.82875 4 6 C3.278125 5.278125 2.55625 4.55625 1.8125 3.8125 C1.214375 3.214375 0.61625 2.61625 0 2 C0 1.34 0 0.68 0 0 Z " fill="#3C837A" transform="translate(228,249)"/>
<path d="M0 0 C-1.02707831 2.77194429 -1.6944087 3.82810489 -4.3125 5.30078125 C-5.199375 5.63464844 -6.08625 5.96851563 -7 6.3125 C-7.886875 6.65925781 -8.77375 7.00601562 -9.6875 7.36328125 C-12 8 -12 8 -14 7 C-13.67 6.34 -13.34 5.68 -13 5 C-15.64 5.66 -18.28 6.32 -21 7 C-21 6.34 -21 5.68 -21 5 C-18.62854106 4.15520547 -16.25365876 3.32406717 -13.875 2.5 C-12.87726563 2.14228516 -12.87726563 2.14228516 -11.859375 1.77734375 C-7.76645945 0.37291194 -4.38868208 -0.27343814 0 0 Z " fill="#97AB5F" transform="translate(234,348)"/>
<path d="M0 0 C0.33 0.99 0.66 1.98 1 3 C1.66 3.33 2.32 3.66 3 4 C1 7 1 7 -1 8 C0.32 8 1.64 8 3 8 C2.67 8.99 2.34 9.98 2 11 C1.030625 11.309375 0.06125 11.61875 -0.9375 11.9375 C-4.10504047 12.68468021 -4.10504047 12.68468021 -5.375 15.125 C-5.58125 15.74375 -5.7875 16.3625 -6 17 C-6.66 17 -7.32 17 -8 17 C-6.75843274 10.17138008 -4.09585047 5.56417423 0 0 Z " fill="#398579" transform="translate(166,260)"/>
<path d="M0 0 C0.66 0.33 1.32 0.66 2 1 C1 4 1 4 -1.3125 5.6875 C-6.55051645 7.55187874 -11.49590241 7.24047028 -17 7 C-17.33 6.34 -17.66 5.68 -18 5 C-17.67 4.34 -17.34 3.68 -17 3 C-12.05122578 1.94609438 -6.88947792 1.53315663 -2 3 C-2 2.34 -2 1.68 -2 1 C-1.34 0.67 -0.68 0.34 0 0 Z " fill="#20645B" transform="translate(214,346)"/>
<path d="M0 0 C0.66 0 1.32 0 2 0 C2.33 0.99 2.66 1.98 3 3 C6.71736641 3.34900558 6.71736641 3.34900558 9.8125 1.5 C10.204375 1.005 10.59625 0.51 11 0 C11.3125 2.8125 11.3125 2.8125 11 6 C8.875 7.9375 8.875 7.9375 6 9 C2.6875 8.6875 2.6875 8.6875 0 8 C-0.38063221 5.6739143 -0.71269945 3.33944736 -1 1 C-0.67 0.67 -0.34 0.34 0 0 Z " fill="#C4AD44" transform="translate(252,333)"/>
<path d="M0 0 C1.32 0.66 2.64 1.32 4 2 C3.8125 4.375 3.8125 4.375 3 7 C-1.37573445 9.96420721 -6.92617738 9.17733749 -12 9 C-12.33 9.66 -12.66 10.32 -13 11 C-12.46104623 7.2273236 -11.00464642 5.31787009 -8 3 C-5.75 3.25 -5.75 3.25 -4 4 C-4.33 4.99 -4.66 5.98 -5 7 C-4.236875 6.67 -3.47375 6.34 -2.6875 6 C0 5 0 5 3 5 C3 4.34 3 3.68 3 3 C2.01 2.67 1.02 2.34 0 2 C0 1.34 0 0.68 0 0 Z " fill="#36786E" transform="translate(215,323)"/>
<path d="M0 0 C0.35338623 2.96844435 0.5417682 5.15598218 -1.11328125 7.734375 C-2.35503168 9.20348819 -3.67337918 10.60704814 -5 12 C-6 10 -6 10 -6 6 C-6.60328125 6.22816406 -7.2065625 6.45632812 -7.828125 6.69140625 C-9.02695312 7.12259766 -9.02695312 7.12259766 -10.25 7.5625 C-11.03890625 7.85253906 -11.8278125 8.14257812 -12.640625 8.44140625 C-15.19103452 9.04522837 -16.55322229 8.8473932 -19 8 C-18.19175781 7.67386719 -17.38351563 7.34773437 -16.55078125 7.01171875 C-14.94783203 6.35623047 -14.94783203 6.35623047 -13.3125 5.6875 C-12.25675781 5.25824219 -11.20101563 4.82898438 -10.11328125 4.38671875 C-6.99437593 3.07381037 -6.99437593 3.07381037 -4.23046875 1.33203125 C-2 0 -2 0 0 0 Z " fill="#E2C56A" transform="translate(273,247)"/>
<path d="M0 0 C1.32 0 2.64 0 4 0 C5.15837626 4.05431692 4.83691257 6.21812119 3 10 C2.01 9.236875 1.02 8.47375 0 7.6875 C-3.80971735 4.94512678 -7.55974265 3.48008578 -12 2 C-8.08263419 0.8299903 -5.02040985 1.30415983 -1 2 C-0.67 1.34 -0.34 0.68 0 0 Z " fill="#E1BC4F" transform="translate(156,259)"/>
<path d="M0 0 C2 1 2 1 3.125 3.125 C4.15945114 6.52391089 4.1385722 9.46640886 4 13 C-3.75 12.25 -3.75 12.25 -6 10 C-5.01 9.67 -4.02 9.34 -3 9 C-1.16825705 6.15062207 -0.55260426 3.31562557 0 0 Z " fill="#99AE50" transform="translate(148,337)"/>
<path d="M0 0 C-0.33 0.66 -0.66 1.32 -1 2 C-3.70716242 2.90238747 -5.23776768 3.11851302 -8.01171875 3.09765625 C-9.14770508 3.09282227 -9.14770508 3.09282227 -10.30664062 3.08789062 C-11.09232422 3.07951172 -11.87800781 3.07113281 -12.6875 3.0625 C-13.48478516 3.05798828 -14.28207031 3.05347656 -15.10351562 3.04882812 C-17.06904257 3.0370585 -19.03453085 3.01912348 -21 3 C-21.33 2.34 -21.66 1.68 -22 1 C-7.40318907 -1.48063781 -7.40318907 -1.48063781 0 0 Z " fill="#899E49" transform="translate(201,358)"/>
<path d="M0 0 C0 2.97 0 5.94 0 9 C-0.33 9 -0.66 9 -1 9 C-1.12375 8.030625 -1.2475 7.06125 -1.375 6.0625 C-1.58125 5.051875 -1.7875 4.04125 -2 3 C-2.66 2.67 -3.32 2.34 -4 2 C-4 4.64 -4 7.28 -4 10 C-5.98 10.33 -7.96 10.66 -10 11 C-9.6875 9.0625 -9.6875 9.0625 -9 7 C-8.01 6.67 -7.02 6.34 -6 6 C-6 5.34 -6 4.68 -6 4 C-6.99 4.33 -7.98 4.66 -9 5 C-8 2 -8 2 -6.1875 0.8125 C-4 0 -4 0 0 0 Z " fill="#E5CA84" transform="translate(211,235)"/>
<path d="M0 0 C0 0.99 0 1.98 0 3 C-1.051875 3.391875 -2.10375 3.78375 -3.1875 4.1875 C-7.50495738 6.02657921 -10.86800323 8.73600645 -13 13 C-13.22467831 14.53668865 -13.40796805 16.07968054 -13.5625 17.625 C-13.64628906 18.44226563 -13.73007813 19.25953125 -13.81640625 20.1015625 C-13.87699219 20.72804688 -13.93757812 21.35453125 -14 22 C-14.33 21.01 -14.66 20.02 -15 19 C-15.66 18.67 -16.32 18.34 -17 18 C-15.37961452 9.95394797 -11.49444632 5.8307836 -5 1 C-3 0 -3 0 0 0 Z " fill="#CDE6E6" transform="translate(195,322)"/>
<path d="M0 0 C4 2 8 4 12 6 C13.0828125 6.515625 14.165625 7.03125 15.28125 7.5625 C18.1035595 9.0547556 19.33522758 10.31786666 21 13 C20.34 14.32 19.68 15.64 19 17 C18.80019531 16.06414062 18.60039062 15.12828125 18.39453125 14.1640625 C17.28910246 10.77707978 17.28910246 10.77707978 14.13671875 9.4609375 C12.99847656 9.10257812 11.86023438 8.74421875 10.6875 8.375 C5.98034986 6.86141238 2.71093103 5.30015255 -1 2 C-0.67 1.34 -0.34 0.68 0 0 Z " fill="#FCF2CE" transform="translate(137,256)"/>
<path d="M0 0 C0.33 1.32 0.66 2.64 1 4 C-2.65592058 6.43728039 -6.19361944 7.44791843 -10.375 8.6875 C-11.13039062 8.92533203 -11.88578125 9.16316406 -12.6640625 9.40820312 C-16.78636762 10.63696715 -19.76735592 11.39120771 -24 10 C-20.78756183 8.20933471 -17.70420777 7.3685048 -14.125 6.5625 C-8.75039853 5.26473038 -3.99896676 3.99896676 0 0 Z " fill="#DAEBD7" transform="translate(225,345)"/>
<path d="M0 0 C2.475 0.99 2.475 0.99 5 2 C5 2.66 5 3.32 5 4 C11.93 4.495 11.93 4.495 19 5 C19 5.66 19 6.32 19 7 C12.67853027 8.19175249 8.26173931 8.30541345 2.49609375 5.30078125 C0.6188611 3.66861813 0.37152909 2.4174838 0 0 Z " fill="#D2B049" transform="translate(192,251)"/>
<path d="M0 0 C0.66 0 1.32 0 2 0 C2.433125 1.093125 2.86625 2.18625 3.3125 3.3125 C4.49495641 6.09408793 5.60800043 8.06361939 8 10 C7.01 10.66 6.02 11.32 5 12 C2.53199953 10.84826645 0.95216435 9.95216435 -1 8 C-1.1875 4.4375 -1.1875 4.4375 -1 1 C-0.67 0.67 -0.34 0.34 0 0 Z " fill="#95A64C" transform="translate(154,348)"/>
<path d="M0 0 C5.58513495 0.37865322 8.98482505 0.73387662 13 5 C13 5.99 13 6.98 13 8 C9.76834156 7.28269264 6.81292078 6.18684926 3.75 4.9375 C2.85796875 4.57527344 1.9659375 4.21304687 1.046875 3.83984375 C0.03367188 3.42412109 0.03367188 3.42412109 -1 3 C-0.67 2.01 -0.34 1.02 0 0 Z " fill="#A0B065" transform="translate(244,319)"/>
<path d="M0 0 C5.67276511 -0.29341888 8.99067246 -0.00559652 14 3 C13.01 3.33 12.02 3.66 11 4 C10.67 3.67 10.34 3.34 10 3 C7.67182036 2.63239269 5.3381615 2.29758419 3 2 C3 4.31 3 6.62 3 9 C3.66 9 4.32 9 5 9 C6.625 11.5 6.625 11.5 8 14 C4.60525334 12.59527724 2.78835755 11.23607557 1 8 C0.46617288 5.3205985 0.22766917 2.73203009 0 0 Z " fill="#9CAE5E" transform="translate(134,333)"/>
<path d="M0 0 C-0.33 1.65 -0.66 3.3 -1 5 C-2.66611905 5.042721 -4.33382885 5.04063832 -6 5 C-6.33 4.67 -6.66 4.34 -7 4 C-7.928125 4.309375 -8.85625 4.61875 -9.8125 4.9375 C-11.875 5.625 -13.9375 6.3125 -16 7 C-16.33 7.99 -16.66 8.98 -17 10 C-16.875 7.1875 -16.875 7.1875 -16 4 C-11.18482861 0.59414707 -5.8032396 0 0 0 Z " fill="#ECBF3E" transform="translate(269,263)"/>
<path d="M0 0 C0 3 0 3 -1.6171875 5.015625 C-4.33069896 7.27540175 -6.84909145 8.44607571 -10.125 9.75 C-11.70667969 10.39195312 -11.70667969 10.39195312 -13.3203125 11.046875 C-16 12 -16 12 -18 12 C-18 12.66 -18 13.32 -18 14 C-18.99 13.67 -19.98 13.34 -21 13 C-16.39972241 8.5275079 -11.696668 6.45610951 -5.70703125 4.2109375 C-3.15820009 3.07076772 -1.77534772 2.11089453 0 0 Z " fill="#FBF0C8" transform="translate(271,255)"/>
<path d="M0 0 C0 1.32 0 2.64 0 4 C-1.65 3.67 -3.3 3.34 -5 3 C-5 4.32 -5 5.64 -5 7 C-6.98 7 -8.96 7 -11 7 C-11.33 6.01 -11.66 5.02 -12 4 C-8.59914501 0.59914501 -4.67235329 -1.5574511 0 0 Z " fill="#EFC03B" transform="translate(268,253)"/>
<path d="M0 0 C0.66 0 1.32 0 2 0 C2 2.97 2 5.94 2 9 C2.66 9 3.32 9 4 9 C4 9.66 4 10.32 4 11 C1.69 10.67 -0.62 10.34 -3 10 C-2.34 9.67 -1.68 9.34 -1 9 C-2.58358642 5.83282717 -3.45263699 4.26731682 -6.6875 2.6875 C-7.8321875 2.3471875 -7.8321875 2.3471875 -9 2 C-9 1.67 -9 1.34 -9 1 C-7.02 1 -5.04 1 -3 1 C-3 1.66 -3 2.32 -3 3 C-2.34 3 -1.68 3 -1 3 C-0.67 2.01 -0.34 1.02 0 0 Z " fill="#EBEDD1" transform="translate(258,318)"/>
<path d="M0 0 C1.98 0.99 1.98 0.99 4 2 C4.33 1.34 4.66 0.68 5 0 C5.33 1.32 5.66 2.64 6 4 C5.34 4 4.68 4 4 4 C5.0032953 7.23284041 6.02601428 8.015175 9 9.75 C13.56642066 11.53602076 18.17433447 11.26215889 23 11 C20.56092256 13.43907744 19.74131058 13.34891288 16.375 13.4375 C10.85145272 13.31759666 7.05967937 11.74814522 3 8 C0 3.21875 0 3.21875 0 0 Z " fill="#CBB772" transform="translate(188,247)"/>
<path d="M0 0 C0.99 0.33 1.98 0.66 3 1 C3 1.99 3 2.98 3 4 C3.66 4 4.32 4 5 4 C5 4.99 5 5.98 5 7 C5.99 7.33 6.98 7.66 8 8 C8 9.66666667 8 11.33333333 8 13 C8.99 12.67 9.98 12.34 11 12 C11.99 13.485 11.99 13.485 13 15 C12.34 15 11.68 15 11 15 C10.67 15.99 10.34 16.98 10 18 C6.79256559 14.29750507 4.73638412 10.65686427 2.75 6.1875 C2.22921875 5.02605469 1.7084375 3.86460937 1.171875 2.66796875 C0.78515625 1.78753906 0.3984375 0.90710938 0 0 Z " fill="#3E746C" transform="translate(162,313)"/>
<path d="M0 0 C1.32 0.33 2.64 0.66 4 1 C4.36334661 8.38804781 4.36334661 8.38804781 2.8125 11 C0.44004321 12.30894168 -1.3335118 12.21620175 -4 12 C-3.67 11.34 -3.34 10.68 -3 10 C-2.34 10 -1.68 10 -1 10 C-0.67 6.7 -0.34 3.4 0 0 Z " fill="#F8F7F2" transform="translate(212,238)"/>
<path d="M0 0 C1.03688965 0.05236816 2.0737793 0.10473633 3.14208984 0.15869141 C4.82431641 0.23603516 4.82431641 0.23603516 6.54052734 0.31494141 C7.71615234 0.37939453 8.89177734 0.44384766 10.10302734 0.51025391 C11.87806641 0.59533203 11.87806641 0.59533203 13.68896484 0.68212891 C16.61923847 0.82391634 19.54869507 0.97535724 22.47802734 1.13525391 C22.47802734 1.46525391 22.47802734 1.79525391 22.47802734 2.13525391 C21.35783203 2.19583984 20.23763672 2.25642578 19.08349609 2.31884766 C17.61082751 2.40326815 16.13817191 2.4879154 14.66552734 2.57275391 C13.92753906 2.61207031 13.18955078 2.65138672 12.42919922 2.69189453 C9.24731393 2.87906425 6.51640356 3.12246183 3.47802734 4.13525391 C3.47802734 3.47525391 3.47802734 2.81525391 3.47802734 2.13525391 C2.15802734 2.13525391 0.83802734 2.13525391 -0.52197266 2.13525391 C-0.52197266 2.79525391 -0.52197266 3.45525391 -0.52197266 4.13525391 C0.46802734 4.46525391 1.45802734 4.79525391 2.47802734 5.13525391 C0.16802734 4.80525391 -2.14197266 4.47525391 -4.52197266 4.13525391 C-4.52197266 0.81649064 -3.13037865 0.16788284 0 0 Z " fill="#ADBC74" transform="translate(163.52197265625,356.86474609375)"/>
<path d="M0 0 C1.32 0.33 2.64 0.66 4 1 C4 1.66 4 2.32 4 3 C3.34 3 2.68 3 2 3 C2.99 4.485 2.99 4.485 4 6 C4 6.99 4 7.98 4 9 C3.01 9.66 2.02 10.32 1 11 C0.34 10.67 -0.32 10.34 -1 10 C-1 8.35 -1 6.7 -1 5 C-1.99 5 -2.98 5 -4 5 C-2.68 3.35 -1.36 1.7 0 0 Z " fill="#38796E" transform="translate(228,300)"/>
<path d="M0 0 C0.33 0 0.66 0 1 0 C2.45347695 3.41567084 3.32620686 5.63226125 2.453125 9.29296875 C0.27241798 14.62855109 -2.21187733 17.80791822 -7 21 C-9.375 21.8125 -9.375 21.8125 -11 22 C-11 21.34 -11 20.68 -11 20 C-9.906875 19.443125 -8.81375 18.88625 -7.6875 18.3125 C-4.2363515 16.29061502 -2.47287016 14.84582763 -1 11 C-0.47782122 7.33957848 -0.18749117 3.69163644 0 0 Z " fill="#E2ECCE" transform="translate(220,239)"/>
<path d="M0 0 C0.66 0.33 1.32 0.66 2 1 C2 4.63 2 8.26 2 12 C0.68 11.34 -0.64 10.68 -2 10 C-2 7.03 -2 4.06 -2 1 C-1.34 0.67 -0.68 0.34 0 0 Z " fill="#DBBD54" transform="translate(190,237)"/>
<path d="M0 0 C0.66 0.66 1.32 1.32 2 2 C-1.67313681 5.26119624 -4.86742652 6.90343391 -9.5625 8.3125 C-10.67753906 8.65925781 -11.79257813 9.00601562 -12.94140625 9.36328125 C-15.84614564 9.96797157 -17.27356653 10.03324496 -20 9 C-17.19948193 7.46668468 -14.76314853 6.66454133 -11.625 6.125 C-6.92569307 5.15567101 -3.44255747 3.44255747 0 0 Z " fill="#CAE7E5" transform="translate(227,335)"/>
<path d="M0 0 C-0.42594588 1.44096586 -0.86626633 2.87768712 -1.3125 4.3125 C-1.55613281 5.11300781 -1.79976563 5.91351563 -2.05078125 6.73828125 C-3.04182023 9.09964573 -4.08074943 10.33879993 -6 12 C-6.66 11.67 -7.32 11.34 -8 11 C-7.525625 10.21625 -7.05125 9.4325 -6.5625 8.625 C-5.66101977 7.11051322 -4.78820515 5.5764103 -4 4 C-5.98 4.33 -7.96 4.66 -10 5 C-3.40909091 0 -3.40909091 0 0 0 Z " fill="#DEC572" transform="translate(273,259)"/>
<path d="M0 0 C0.33 2.64 0.66 5.28 1 8 C-3.41889613 6.64978174 -5.34345343 4.73884332 -8 1 C-5.10765685 0.17361624 -3.11257569 0 0 0 Z " fill="#4B756B" transform="translate(204,362)"/>
<path d="M0 0 C0.66 0 1.32 0 2 0 C3.35439668 2.70879335 3.06501451 5.00933268 3 8 C3.54269531 7.71125 4.08539063 7.4225 4.64453125 7.125 C5.35996094 6.75375 6.07539063 6.3825 6.8125 6 C7.52019531 5.62875 8.22789062 5.2575 8.95703125 4.875 C11 4 11 4 14 4 C12.75627811 4.98712878 11.50472782 5.96439905 10.25 6.9375 C9.55390625 7.48277344 8.8578125 8.02804687 8.140625 8.58984375 C6 10 6 10 2 11 C1.34 7.37 0.68 3.74 0 0 Z " fill="#D5BE74" transform="translate(252,275)"/>
<path d="M0 0 C0.66 0 1.32 0 2 0 C2.28571429 7.42857143 2.28571429 7.42857143 0 11 C-0.99 11 -1.98 11 -3 11 C-2.53199289 6.94393835 -2.12046792 3.53411321 0 0 Z " fill="#367166" transform="translate(241,313)"/>
<path d="M0 0 C-0.99 0.66 -1.98 1.32 -3 2 C-3 2.66 -3 3.32 -3 4 C-1.35 4 0.3 4 2 4 C0 6 0 6 -3.5 6.3125 C-4.655 6.209375 -5.81 6.10625 -7 6 C-7.66 5.01 -8.32 4.02 -9 3 C-6.38220849 -0.01046024 -3.86655673 -1.93327837 0 0 Z " fill="#F7EED6" transform="translate(207,250)"/>
<path d="M0 0 C1.09658936 3.28976808 0.79953138 4.71303767 0 8 C0.99 8 1.98 8 3 8 C3.66 7.34 4.32 6.68 5 6 C5.33 7.65 5.66 9.3 6 11 C6.99 11.33 7.98 11.66 9 12 C0.42857143 11.28571429 0.42857143 11.28571429 -3 8 C-2.45276317 4.62537285 -1.9451 2.91765 0 0 Z " fill="#EDF3DC" transform="translate(160,346)"/>
<path d="M0 0 C1.48199902 0.44909061 2.96055236 0.90956564 4.4375 1.375 C5.26121094 1.63023437 6.08492187 1.88546875 6.93359375 2.1484375 C9 3 9 3 10 5 C5.05 6.485 5.05 6.485 0 8 C0 5.36 0 2.72 0 0 Z " fill="#4B8278" transform="translate(192,258)"/>
<path d="M0 0 C2.97 0.33 5.94 0.66 9 1 C8.34 3.64 7.68 6.28 7 9 C6.34 9 5.68 9 5 9 C3.35 6.03 1.7 3.06 0 0 Z " fill="#43736B" transform="translate(172,331)"/>
<path d="M0 0 C0.33 0 0.66 0 1 0 C1.08636719 0.73605469 1.17273438 1.47210938 1.26171875 2.23046875 C2.16468897 8.59615935 2.16468897 8.59615935 5.375 14.0625 C7.55094013 15.66855105 9.50172133 16.98218276 12 18 C12 18.66 12 19.32 12 20 C7.6511541 19.49821009 5.10556122 16.90302462 2 14 C-0.00645261 10.8498694 -0.22235408 8.44945523 -0.125 4.75 C-0.09792969 3.41195312 -0.09792969 3.41195312 -0.0703125 2.046875 C-0.04710937 1.37140625 -0.02390625 0.6959375 0 0 Z " fill="#DFEAD0" transform="translate(187,241)"/>
<path d="M0 0 C-0.33 0.33 -0.66 0.66 -1 1 C0.98 1.66 2.96 2.32 5 3 C4.67 3.66 4.34 4.32 4 5 C3.34 4.67 2.68 4.34 2 4 C0.12620395 3.92966231 -1.75001102 3.9156978 -3.625 3.9375 C-5.12933594 3.95103516 -5.12933594 3.95103516 -6.6640625 3.96484375 C-7.82035156 3.98224609 -7.82035156 3.98224609 -9 4 C-9.33 4.66 -9.66 5.32 -10 6 C-10 5.34 -10 4.68 -10 4 C-11.32 3.67 -12.64 3.34 -14 3 C-12.04486839 2.303447 -10.08577524 1.61800435 -8.125 0.9375 C-7.03445312 0.55464844 -5.94390625 0.17179687 -4.8203125 -0.22265625 C-2 -1 -2 -1 0 0 Z " fill="#EAF4D5" transform="translate(232,353)"/>
<path d="M0 0 C0.49230769 7.26153846 0.49230769 7.26153846 -2 11 C-2.66 11.66 -3.32 12.32 -4 13 C-4.66 12.67 -5.32 12.34 -6 12 C-4.35 9.69 -2.7 7.38 -1 5 C-3.31 5.33 -5.62 5.66 -8 6 C-2.28571429 0 -2.28571429 0 0 0 Z " fill="#FBF2D6" transform="translate(270,268)"/>
<path d="M0 0 C3.3 0.99 6.6 1.98 10 3 C10 3.66 10 4.32 10 5 C6.7 5.66 3.4 6.32 0 7 C0 4.69 0 2.38 0 0 Z " fill="#E5C864" transform="translate(208,209)"/>
<path d="M0 0 C-1.75 3.875 -1.75 3.875 -4 5 C-5.99960012 5.039992 -8.00047242 5.04346799 -10 5 C-7.62417533 -0.26075462 -5.61350876 -0.1220328 0 0 Z " fill="#92A84D" transform="translate(234,348)"/>
<path d="M0 0 C3.875 4.75 3.875 4.75 5 7 C3.4840625 7.3403125 3.4840625 7.3403125 1.9375 7.6875 C-2.43018335 8.90866861 -5.43955933 11.23884193 -9 14 C-9.66 13.67 -10.32 13.34 -11 13 C-10.30132812 12.51789063 -9.60265625 12.03578125 -8.8828125 11.5390625 C-7.97273437 10.90742188 -7.06265625 10.27578125 -6.125 9.625 C-5.22007812 8.99851562 -4.31515625 8.37203125 -3.3828125 7.7265625 C-0.96505875 6.0701905 -0.96505875 6.0701905 1 4 C0.6814823 1.89179203 0.6814823 1.89179203 0 0 Z " fill="#E5F2DC" transform="translate(172,332)"/>
<path d="M0 0 C3 2 3 2 3.6875 4.625 C3.790625 5.40875 3.89375 6.1925 4 7 C3.01 7.66 2.02 8.32 1 9 C1 7.02 1 5.04 1 3 C-2.96 4.98 -2.96 4.98 -7 7 C-7 6.34 -7 5.68 -7 5 C-6.34 5 -5.68 5 -5 5 C-5 4.34 -5 3.68 -5 3 C-2.5 1.375 -2.5 1.375 0 0 Z " fill="#F9F6E1" transform="translate(272,244)"/>
<path d="M0 0 C0.33 1.32 0.66 2.64 1 4 C7.435 3.505 7.435 3.505 14 3 C10.09224671 4.95387664 8.00312413 5.34762234 3.75 5.625 C2.67234375 5.69976562 1.5946875 5.77453125 0.484375 5.8515625 C-0.33546875 5.90054687 -1.1553125 5.94953125 -2 6 C-2.33 4.68 -2.66 3.36 -3 2 C-2.01 1.34 -1.02 0.68 0 0 Z " fill="#E4F3E4" transform="translate(190,352)"/>
<path d="M0 0 C0.33 0 0.66 0 1 0 C1.66 4.95 2.32 9.9 3 15 C2.67 15 2.34 15 2 15 C1.67 17.64 1.34 20.28 1 23 C0.67 23 0.34 23 0 23 C-1.33257403 7.25512528 -1.33257403 7.25512528 0 0 Z " fill="#DDE7D3" transform="translate(251,270)"/>
<path d="M0 0 C0.78375 0.185625 1.5675 0.37125 2.375 0.5625 C4.97089775 1.25962266 4.97089775 1.25962266 7 0 C8.99960012 -0.039992 11.00047242 -0.04346799 13 0 C13 0.99 13 1.98 13 3 C11.39592672 3.02708567 9.7917215 3.04643483 8.1875 3.0625 C6.84751953 3.07990234 6.84751953 3.07990234 5.48046875 3.09765625 C3 3 3 3 0 2 C0 1.34 0 0.68 0 0 Z " fill="#91A444" transform="translate(163,359)"/>
<path d="M0 0 C0.33 0 0.66 0 1 0 C1.3125 2.8125 1.3125 2.8125 1 6 C-1.125 7.9375 -1.125 7.9375 -4 9 C-7.3125 8.6875 -7.3125 8.6875 -10 8 C-10 7.67 -10 7.34 -10 7 C-7.36 7 -4.72 7 -2 7 C-2 6.34 -2 5.68 -2 5 C-3.65 5 -5.3 5 -7 5 C-7 4.67 -7 4.34 -7 4 C-5.5459375 3.566875 -5.5459375 3.566875 -4.0625 3.125 C-0.89335797 2.35785318 -0.89335797 2.35785318 0 0 Z " fill="#C3AB5B" transform="translate(262,333)"/>
<path d="M0 0 C6.23440168 1.58960332 12.16287645 3.27600901 18 6 C14.8568669 7.57156655 12.634536 6.11705576 9.375 5.0625 C8.18648437 4.68222656 6.99796875 4.30195313 5.7734375 3.91015625 C4.85820312 3.60980469 3.94296875 3.30945313 3 3 C2.67 3.99 2.34 4.98 2 6 C1.34 4.02 0.68 2.04 0 0 Z " fill="#DDC25E" transform="translate(137,261)"/>
<path d="M0 0 C0.5534764 2.07553648 1 3.84365964 1 6 C2.98 6.99 4.96 7.98 7 9 C4.38934904 10.30532548 3.2445219 9.78282536 0.4375 9.125 C-0.36816406 8.94195312 -1.17382812 8.75890625 -2.00390625 8.5703125 C-4 8 -4 8 -5 7 C-5.04063832 5.33382885 -5.042721 3.66611905 -5 2 C-3.68 3.32 -2.36 4.64 -1 6 C-0.67 4.02 -0.34 2.04 0 0 Z " fill="#FBF1D4" transform="translate(206,219)"/>
<path d="M0 0 C0.33 0 0.66 0 1 0 C1.20190089 6.35987804 0.6277833 11.85221129 -1 18 C-2.98 17.34 -4.96 16.68 -7 16 C-7 15.67 -7 15.34 -7 15 C-5.35 14.67 -3.7 14.34 -2 14 C-1.34 9.38 -0.68 4.76 0 0 Z " fill="#D2BC76" transform="translate(155,268)"/>
<path d="M0 0 C0 1.65 0 3.3 0 5 C-1.65 5.66 -3.3 6.32 -5 7 C-5 6.34 -5 5.68 -5 5 C-6.32 4.67 -7.64 4.34 -9 4 C-7.68872739 3.3309224 -6.3759455 2.66480194 -5.0625 2 C-4.33160156 1.62875 -3.60070312 1.2575 -2.84765625 0.875 C-1 0 -1 0 0 0 Z " fill="#CFB65F" transform="translate(216,251)"/>
<path d="M0 0 C0.99 0.33 1.98 0.66 3 1 C2.34 2.32 1.68 3.64 1 5 C2.98 5 4.96 5 7 5 C7 5.66 7 6.32 7 7 C3.7 7 0.4 7 -3 7 C-3 5 -3 5 -1 3 C-0.67 2.01 -0.34 1.02 0 0 Z " fill="#477A74" transform="translate(209,314)"/>
<path d="M0 0 C6.625 0.75 6.625 0.75 10 3 C10 3.99 10 4.98 10 6 C10.99 6.33 11.98 6.66 13 7 C12.34 7.66 11.68 8.32 11 9 C10.54109375 8.60167969 10.0821875 8.20335937 9.609375 7.79296875 C6.47728415 5.08857938 3.36122541 2.42008229 0 0 Z " fill="#50867D" transform="translate(212,264)"/>
<path d="M0 0 C-1.37154504 2.95409701 -2.98863724 5.44008376 -5 8 C-5.33 7.01 -5.66 6.02 -6 5 C-6.66 4.67 -7.32 4.34 -8 4 C-3.375 0 -3.375 0 0 0 Z " fill="#9AAA55" transform="translate(162,343)"/>
<path d="M0 0 C2.08153935 -0.13536022 4.16561206 -0.23215465 6.25 -0.3125 C7.41015625 -0.37050781 8.5703125 -0.42851562 9.765625 -0.48828125 C13 0 13 0 15.421875 2.51953125 C15.94265625 3.33808594 16.4634375 4.15664063 17 5 C14 5 14 5 11.3125 3.5625 C7.37094311 1.70327505 4.31838697 1.37227474 0 1 C0 0.67 0 0.34 0 0 Z " fill="#ECF3D9" transform="translate(134,332)"/>
<path d="M0 0 C0.33 0 0.66 0 1 0 C1 6.27 1 12.54 1 19 C0.67 19 0.34 19 0 19 C0 16.69 0 14.38 0 12 C-0.66 12 -1.32 12 -2 12 C-1.34 8.04 -0.68 4.08 0 0 Z " fill="#E5F0DD" transform="translate(156,273)"/>
<path d="M0 0 C0.66 0 1.32 0 2 0 C2 2.31 2 4.62 2 7 C0.35 7 -1.3 7 -3 7 C-3 5.02 -3 3.04 -3 1 C-2.01 1.33 -1.02 1.66 0 2 C0 1.34 0 0.68 0 0 Z " fill="#B2C27E" transform="translate(150,343)"/>
<path d="M0 0 C3.3 0.99 6.6 1.98 10 3 C10 4.65 10 6.3 10 8 C9.62875 7.525625 9.2575 7.05125 8.875 6.5625 C6.37353038 4.47794198 4.18406582 4.35378509 1 4 C0.67 2.68 0.34 1.36 0 0 Z " fill="#E9BC44" transform="translate(145,265)"/>
<path d="M0 0 C0.66 0.99 1.32 1.98 2 3 C0.68 3 -0.64 3 -2 3 C-2.33 3.99 -2.66 4.98 -3 6 C-5.60242414 7.64820195 -6.86248779 8 -10 8 C-10 7.34 -10 6.68 -10 6 C-7.8125 4.4921875 -7.8125 4.4921875 -5 2.875 C-4.071875 2.33617187 -3.14375 1.79734375 -2.1875 1.2421875 C-1.465625 0.83226562 -0.74375 0.42234375 0 0 Z " fill="#427870" transform="translate(223,307)"/>
<path d="M0 0 C0.66 0.66 1.32 1.32 2 2 C1.54545455 7.45454545 1.54545455 7.45454545 -1 10 C-2.98 8.35 -4.96 6.7 -7 5 C-5.68 4.67 -4.36 4.34 -3 4 C-3 4.66 -3 5.32 -3 6 C-2.01 6 -1.02 6 0 6 C0 4.02 0 2.04 0 0 Z " fill="#D4BE73" transform="translate(159,259)"/>
<path d="M0 0 C0 1.65 0 3.3 0 5 C-1.98 5.33 -3.96 5.66 -6 6 C-5.6875 4.125 -5.6875 4.125 -5 2 C-2 0 -2 0 0 0 Z " fill="#FAEFCE" transform="translate(207,240)"/>
<path d="M0 0 C0.66 0 1.32 0 2 0 C2.33 1.32 2.66 2.64 3 4 C3.99 4 4.98 4 6 4 C6.33 3.01 6.66 2.02 7 1 C8 3 8 3 7.0625 6.125 C6.711875 7.07375 6.36125 8.0225 6 9 C3 8 3 8 2.05078125 6.15234375 C1.80714844 5.42144531 1.56351563 4.69054687 1.3125 3.9375 C1.06113281 3.20402344 0.80976563 2.47054687 0.55078125 1.71484375 C0.36902344 1.14894531 0.18726563 0.58304688 0 0 Z " fill="#E1C66F" transform="translate(199,216)"/>
<path d="M0 0 C0.66 0 1.32 0 2 0 C3.10228696 4.40914783 3.07654536 8.48382401 3 13 C2.67 13 2.34 13 2 13 C2 11.02 2 9.04 2 7 C1.34 7 0.68 7 0 7 C-0.33 7.66 -0.66 8.32 -1 9 C-0.67 6.03 -0.34 3.06 0 0 Z " fill="#E0CE89" transform="translate(203,191)"/>
<path d="M0 0 C2.31 0.33 4.62 0.66 7 1 C5.68 1.33 4.36 1.66 3 2 C4.98 4.64 6.96 7.28 9 10 C4.42730974 7.71365487 3.0047845 6.00637934 0 2 C0 1.34 0 0.68 0 0 Z " fill="#D0BB6D" transform="translate(139,273)"/>
<path d="M0 0 C-1.28813342 0.83878455 -2.58063256 1.67086783 -3.875 2.5 C-4.59429687 2.9640625 -5.31359375 3.428125 -6.0546875 3.90625 C-8 5 -8 5 -10 5 C-10.33 5.99 -10.66 6.98 -11 8 C-10.875 5.1875 -10.875 5.1875 -10 2 C-6.28411586 -0.55983129 -4.2629172 -1.34083079 0 0 Z " fill="#DFC36B" transform="translate(263,265)"/>
<path d="M0 0 C0.66 0.33 1.32 0.66 2 1 C0 5 -2 9 -4 13 C-4.66 12.67 -5.32 12.34 -6 12 C-4.43358249 7.69235185 -2.31663844 3.93828536 0 0 Z " fill="#FBF1E2" transform="translate(190,232)"/>
<path d="M0 0 C3.96 0.33 7.92 0.66 12 1 C12 1.66 12 2.32 12 3 C10.56344146 3.08131463 9.1255517 3.13933559 7.6875 3.1875 C6.48673828 3.23970703 6.48673828 3.23970703 5.26171875 3.29296875 C3 3 3 3 0 0 Z " fill="#3B7268" transform="translate(194,314)"/>
<path d="M0 0 C4.92127034 -0.16682272 8.50343896 -0.24828052 13 2 C13 2.33 13 2.66 13 3 C4.80743982 3.4726477 4.80743982 3.4726477 1.4375 1.5 C0.963125 1.005 0.48875 0.51 0 0 Z " fill="#ECC456" transform="translate(198,228)"/>
<path d="M0 0 C-2.8086289 2.8086289 -5.11134294 2.72711179 -9 3 C-9.99 2.34 -10.98 1.68 -12 1 C-3.96428571 -1.27678571 -3.96428571 -1.27678571 0 0 Z " fill="#C6DBC5" transform="translate(213,353)"/>
<path d="M0 0 C2.24606427 1.77444972 2.95081002 2.58352485 3.29296875 5.48046875 C3.25816406 6.37378906 3.22335937 7.26710938 3.1875 8.1875 C3.16042969 9.08855469 3.13335937 9.98960937 3.10546875 10.91796875 C3.07066406 11.60503906 3.03585937 12.29210937 3 13 C1.68 13.33 0.36 13.66 -1 14 C-0.66226562 13.44828125 -0.32453125 12.8965625 0.0234375 12.328125 C1.21101261 9.49694595 1.02275703 7.77295344 0.625 4.75 C0.51414062 3.85796875 0.40328125 2.9659375 0.2890625 2.046875 C0.19367188 1.37140625 0.09828125 0.6959375 0 0 Z " fill="#FBF3DF" transform="translate(262,327)"/>
<path d="M0 0 C2.31 0.33 4.62 0.66 7 1 C6.67 2.32 6.34 3.64 6 5 C1.25 4.25 1.25 4.25 -1 2 C-0.67 1.34 -0.34 0.68 0 0 Z " fill="#206A5B" transform="translate(173,328)"/>
<path d="M0 0 C0.99 0 1.98 0 3 0 C2.34 2.31 1.68 4.62 1 7 C0.01 6.34 -0.98 5.68 -2 5 C-1.125 1.125 -1.125 1.125 0 0 Z " fill="#98B33E" transform="translate(269,316)"/>
<path d="M0 0 C0.66 0 1.32 0 2 0 C1.67 4.95 1.34 9.9 1 15 C0.67 15 0.34 15 0 15 C-0.19390729 12.68802845 -0.37996367 10.3753971 -0.5625 8.0625 C-0.71912109 6.13083984 -0.71912109 6.13083984 -0.87890625 4.16015625 C-0.91886719 3.11730469 -0.95882812 2.07445312 -1 1 C-0.67 0.67 -0.34 0.34 0 0 Z " fill="#5A8D86" transform="translate(178,280)"/>
<path d="M0 0 C3.91402949 1.26941497 5.79072873 2.51167694 8 6 C7.34 7.32 6.68 8.64 6 10 C5.79375 9.05125 5.5875 8.1025 5.375 7.125 C4.29166667 3.70833333 4.29166667 3.70833333 0.875 2.625 C-0.07375 2.41875 -1.0225 2.2125 -2 2 C-1.34 1.34 -0.68 0.68 0 0 Z " fill="#F8ECC7" transform="translate(150,263)"/>
<path d="M0 0 C1.32 0.33 2.64 0.66 4 1 C4.33 3.31 4.66 5.62 5 8 C3.68 7.67 2.36 7.34 1 7 C1.66 7 2.32 7 3 7 C3 6.34 3 5.68 3 5 C2.01 5 1.02 5 0 5 C0 3.35 0 1.7 0 0 Z " fill="#F7F7F3" transform="translate(193,241)"/>
<path d="M0 0 C0.33 0.66 0.66 1.32 1 2 C1.99 2.33 2.98 2.66 4 3 C2.68 4.32 1.36 5.64 0 7 C-0.99 6.67 -1.98 6.34 -3 6 C-1.125 1.125 -1.125 1.125 0 0 Z " fill="#DDC46A" transform="translate(192,232)"/>
<path d="M0 0 C-1.65 1.98 -3.3 3.96 -5 6 C-5.28875 5.38125 -5.5775 4.7625 -5.875 4.125 C-6.93720042 1.86674235 -6.93720042 1.86674235 -9 0 C-3.375 -1.125 -3.375 -1.125 0 0 Z " fill="#476B62" transform="translate(214,361)"/>
<path d="M0 0 C-0.33 0.99 -0.66 1.98 -1 3 C-3.31 3.33 -5.62 3.66 -8 4 C-7.01 3.34 -6.02 2.68 -5 2 C-5.66 1.34 -6.32 0.68 -7 0 C-4.3333581 -1.33332095 -2.83319697 -0.67102033 0 0 Z " fill="#90A15D" transform="translate(205,357)"/>
<path d="M0 0 C0.66 0.33 1.32 0.66 2 1 C1.6875 2.9375 1.6875 2.9375 1 5 C0.01 5.33 -0.98 5.66 -2 6 C-2.33 5.34 -2.66 4.68 -3 4 C-3.99 4.495 -3.99 4.495 -5 5 C-4 2 -4 2 -2.0625 0.75 C-1.381875 0.5025 -0.70125 0.255 0 0 Z " fill="#A6B267" transform="translate(248,338)"/>
<path d="M0 0 C1.32 0 2.64 0 4 0 C3.67 1.65 3.34 3.3 3 5 C1.68 4.67 0.36 4.34 -1 4 C-0.67 2.68 -0.34 1.36 0 0 Z " fill="#F9EBCA" transform="translate(255,332)"/>
<path d="M0 0 C2.97 0 5.94 0 9 0 C8.34 1.65 7.68 3.3 7 5 C6.67 4.01 6.34 3.02 6 2 C4.02 2.33 2.04 2.66 0 3 C0 2.01 0 1.02 0 0 Z " fill="#DFC575" transform="translate(260,273)"/>
<path d="M0 0 C0 3 0 3 -1.75 5.125 C-3.95974524 6.96645436 -5.20090866 7.60012981 -8 8 C-6.6636586 3.99097581 -4.50572968 3.19108105 -1 1 C-0.67 0.67 -0.34 0.34 0 0 Z " fill="#FDF4D5" transform="translate(271,255)"/>
<path d="M0 0 C-0.99 0.495 -0.99 0.495 -2 1 C-1.34 1.33 -0.68 1.66 0 2 C0 2.66 0 3.32 0 4 C-2.97 3.01 -5.94 2.02 -9 1 C-9 0.67 -9 0.34 -9 0 C-5.62182575 -0.84454356 -3.32534757 -1.10844919 0 0 Z " fill="#F9F4E0" transform="translate(153,251)"/>
<path d="M0 0 C0.99 0 1.98 0 3 0 C3 1.32 3 2.64 3 4 C2.01 4 1.02 4 0 4 C0 4.66 0 5.32 0 6 C-1.98 6 -3.96 6 -6 6 C-4.04783565 4.04783565 -2.46800047 3.15173355 0 2 C0 1.34 0 0.68 0 0 Z " fill="#2D665D" transform="translate(206,315)"/>
<path d="M0 0 C0.33 0 0.66 0 1 0 C2.28571429 8.57142857 2.28571429 8.57142857 1 12 C0.34 12 -0.32 12 -1 12 C-0.67 8.04 -0.34 4.08 0 0 Z " fill="#478078" transform="translate(230,287)"/>
<path d="M0 0 C0.78375 0.185625 1.5675 0.37125 2.375 0.5625 C4.97089775 1.25962266 4.97089775 1.25962266 7 0 C6.67 1.32 6.34 2.64 6 4 C3.69 4.33 1.38 4.66 -1 5 C-0.67 3.35 -0.34 1.7 0 0 Z " fill="#2B7F73" transform="translate(167,259)"/>
<path d="M0 0 C0.66 0 1.32 0 2 0 C1.40312566 3.34249629 0.26396123 5.46436342 -2 8 C-2.66 8 -3.32 8 -4 8 C-2.87548273 5.0280615 -1.77706209 2.66559313 0 0 Z " fill="#497870" transform="translate(185,329)"/>
<path d="M0 0 C3 3.875 3 3.875 3 5 C0.36 5.66 -2.28 6.32 -5 7 C-3.35 4.69 -1.7 2.38 0 0 Z " fill="#7D9A25" transform="translate(266,318)"/>
<path d="M0 0 C2.09350689 3.4019487 2.17942163 6.05272412 2 10 C1.67 9.01 1.34 8.02 1 7 C0.34 7 -0.32 7 -1 7 C-1.625 5.1875 -1.625 5.1875 -2 3 C-1.34 2.01 -0.68 1.02 0 0 Z " fill="#256D62" transform="translate(166,310)"/>
<path d="M0 0 C0 0.99 0 1.98 0 3 C-0.598125 2.814375 -1.19625 2.62875 -1.8125 2.4375 C-4.16408762 1.77906313 -4.16408762 1.77906313 -7 3 C-7 2.01 -7 1.02 -7 0 C-4.3333581 -1.33332095 -2.83319697 -0.67102033 0 0 Z " fill="#C8E5E3" transform="translate(240,307)"/>
<path d="M0 0 C2.97 0.495 2.97 0.495 6 1 C6 2.32 6 3.64 6 5 C3.5625 4.1875 3.5625 4.1875 1 3 C0.67 2.01 0.34 1.02 0 0 Z " fill="#E3C05D" transform="translate(138,255)"/>
<path d="M0 0 C1.98 0.66 3.96 1.32 6 2 C4.35 3.32 2.7 4.64 1 6 C0.34 5.67 -0.32 5.34 -1 5 C-0.67 3.35 -0.34 1.7 0 0 Z " fill="#4B867B" transform="translate(222,246)"/>
<path d="M0 0 C0.66 0 1.32 0 2 0 C2 0.66 2 1.32 2 2 C3.65 2 5.3 2 7 2 C6.67 3.32 6.34 4.64 6 6 C3.37812506 4.95125002 2.20628639 4.35068687 0.75 1.875 C0.5025 1.25625 0.255 0.6375 0 0 Z " fill="#497069" transform="translate(183,348)"/>
<path d="M0 0 C0.33 0.99 0.66 1.98 1 3 C-3.75 7 -3.75 7 -6 7 C-4.60667426 3.63279613 -3.0210714 2.0140476 0 0 Z " fill="#C5E1DE" transform="translate(195,346)"/>
<path d="M0 0 C2 2 2 2 2.125 4.625 C2.08375 5.40875 2.0425 6.1925 2 7 C1.34 6.34 0.68 5.68 0 5 C-1.98 5.99 -1.98 5.99 -4 7 C-3.43628586 3.73045798 -2.50037734 2.17424117 0 0 Z " fill="#D0B96D" transform="translate(262,330)"/>
<path d="M0 0 C1.32 0.66 2.64 1.32 4 2 C3.67 3.65 3.34 5.3 3 7 C1.68 7.33 0.36 7.66 -1 8 C-0.67 7.01 -0.34 6.02 0 5 C0.99 5 1.98 5 3 5 C3 4.34 3 3.68 3 3 C2.01 2.67 1.02 2.34 0 2 C0 1.34 0 0.68 0 0 Z " fill="#44726A" transform="translate(215,323)"/>
<path d="M0 0 C0.66 1.32 1.32 2.64 2 4 C0.02 4.99 0.02 4.99 -2 6 C-2.66 4.68 -3.32 3.36 -4 2 C-2.68 1.34 -1.36 0.68 0 0 Z " fill="#1F6D66" transform="translate(172,320)"/>
<path d="M0 0 C0.99 0.66 1.98 1.32 3 2 C2.01 3.98 1.02 5.96 0 8 C-0.66 8 -1.32 8 -2 8 C-1.34 5.36 -0.68 2.72 0 0 Z " fill="#508A80" transform="translate(160,269)"/>
<path d="M0 0 C2.91517292 1.07401108 4.77810176 1.77810176 7 4 C7 4.99 7 5.98 7 7 C6.01 7 5.02 7 4 7 C3.67 6.01 3.34 5.02 3 4 C2.01979625 2.9805881 1.02196992 1.97753644 0 1 C0 0.67 0 0.34 0 0 Z " fill="#E0BE58" transform="translate(142,269)"/>
<path d="M0 0 C-2.31 1.65 -4.62 3.3 -7 5 C-7.33 3.68 -7.66 2.36 -8 1 C-3.375 -1.125 -3.375 -1.125 0 0 Z " fill="#D7C16F" transform="translate(256,264)"/>
<path d="M0 0 C1.98 0 3.96 0 6 0 C6.33 1.32 6.66 2.64 7 4 C4.97954558 3.39816251 2.97888961 2.72693904 1 2 C0.67 1.34 0.34 0.68 0 0 Z " fill="#3B645B" transform="translate(196,363)"/>
<path d="M0 0 C2.95183101 2.95183101 3.08663988 5.95511947 4 10 C3.01 9.67 2.02 9.34 1 9 C0.67 6.03 0.34 3.06 0 0 Z " fill="#5B8C86" transform="translate(246,267)"/>
<path d="M0 0 C0.66 1.65 1.32 3.3 2 5 C-0.31 4.34 -2.62 3.68 -5 3 C-5 2.34 -5 1.68 -5 1 C-2 0 -2 0 0 0 Z " fill="#F1CB44" transform="translate(199,211)"/>
<path d="M0 0 C-3.33333333 1.66666667 -6.66666667 3.33333333 -10 5 C-9.8125 3.125 -9.8125 3.125 -9 1 C-5.5637798 -0.95028714 -3.70512932 -1.09810869 0 0 Z " fill="#426F69" transform="translate(200,345)"/>
<path d="M0 0 C2.64 0.33 5.28 0.66 8 1 C8 1.33 8 1.66 8 2 C3.545 2.495 3.545 2.495 -1 3 C-0.67 2.01 -0.34 1.02 0 0 Z " fill="#41756D" transform="translate(203,341)"/>
<path d="M0 0 C0.99 0.99 1.98 1.98 3 3 C2.34 3 1.68 3 1 3 C0.67 3.99 0.34 4.98 0 6 C-0.66 5.34 -1.32 4.68 -2 4 C-2 3.01 -2 2.02 -2 1 C-1.34 0.67 -0.68 0.34 0 0 Z " fill="#32716A" transform="translate(172,325)"/>
<path d="M0 0 C1.32 0.66 2.64 1.32 4 2 C0.37 2.66 -3.26 3.32 -7 4 C-6.67 3.01 -6.34 2.02 -6 1 C-3.03 1.495 -3.03 1.495 0 2 C0 1.34 0 0.68 0 0 Z " fill="#356F66" transform="translate(196,319)"/>
<path d="M0 0 C3.875 4.75 3.875 4.75 5 7 C4.01 7.33 3.02 7.66 2 8 C1.87625 7.360625 1.7525 6.72125 1.625 6.0625 C1.315625 5.0415625 1.315625 5.0415625 1 4 C0.34 3.67 -0.32 3.34 -1 3 C-0.67 2.01 -0.34 1.02 0 0 Z " fill="#47887D" transform="translate(187,251)"/>
</svg>
